<svg width="256" height="256" viewBox="0 0 256 256" fill="none" xmlns="http://www.w3.org/2000/svg"><style>.i{fill:#fff;}.o{fill:#7047eb;}@media(prefers-color-scheme:dark){.i{fill:#7047eb;}.o{fill:#fff;}}</style><path d="M91.358 19.33H7.31v108.822h84.048a36.658 36.658 0 0 0 25.907-10.731 36.634 36.634 0 0 0 10.73-25.912v-35.54a36.624 36.624 0 0 0-10.73-25.908 36.633 36.633 0 0 0-25.907-10.73Z" class="i"/><path fill-rule="evenodd" clip-rule="evenodd" d="M0 12h91.373a43.967 43.967 0 0 1 43.968 43.968v35.52a43.965 43.965 0 0 1-43.968 43.968H0V12Zm14.656 14.656v94.165h76.717a29.301 29.301 0 0 0 27.076-18.104 29.291 29.291 0 0 0 2.22-11.229v-35.54a29.29 29.29 0 0 0-8.588-20.724 29.296 29.296 0 0 0-20.724-8.589l-76.701.021Z" class="o"/><path fill-rule="evenodd" clip-rule="evenodd" d="M74.996 101.153V52.802h14.656v48.351H74.996Z" class="o"/><path d="M91.358 128.152H7.31v108.821h60.356v-23.698h23.702a36.641 36.641 0 0 0 33.85-22.619 36.654 36.654 0 0 0 2.788-14.023v-11.839a36.635 36.635 0 0 0-10.741-25.906 36.626 36.626 0 0 0-25.907-10.736Z" class="i"/><path fill-rule="evenodd" clip-rule="evenodd" d="M91.357 120.821a44.004 44.004 0 0 1 31.091 12.868 43.987 43.987 0 0 1 12.888 31.085v11.859a43.967 43.967 0 0 1-43.968 43.968H74.996v23.702H0V120.821h91.373-.016Zm0 7.331v7.325H14.641v94.17H60.34v-23.702h31.028a29.303 29.303 0 0 0 20.723-8.584 29.303 29.303 0 0 0 8.589-20.728v-11.839a29.317 29.317 0 0 0-29.323-29.301v-7.341Z" class="o"/><path fill-rule="evenodd" clip-rule="evenodd" d="M75.043 191.211v-29.598h14.656v29.598H75.043Z" class="o"/><path d="M212.033 19.33h-47.405a36.64 36.64 0 0 0-36.643 36.638v35.52a36.661 36.661 0 0 0 10.731 25.912 36.666 36.666 0 0 0 25.912 10.731h47.405A36.658 36.658 0 0 0 237.94 117.4a36.633 36.633 0 0 0 10.73-25.912v-35.54a36.624 36.624 0 0 0-10.73-25.907 36.633 36.633 0 0 0-25.907-10.71Z" class="i"/><path fill-rule="evenodd" clip-rule="evenodd" d="M133.537 24.878A43.967 43.967 0 0 1 164.627 12h47.405A43.969 43.969 0 0 1 256 55.968v35.52a43.965 43.965 0 0 1-43.968 43.968h-47.405a43.965 43.965 0 0 1-43.968-43.968v-35.54a43.964 43.964 0 0 1 12.878-31.07Zm31.09 1.778a29.298 29.298 0 0 0-20.729 8.589 29.298 29.298 0 0 0-8.583 20.723v35.52a29.298 29.298 0 0 0 2.23 11.218 29.333 29.333 0 0 0 6.353 9.511 29.3 29.3 0 0 0 20.729 8.583h47.405a29.333 29.333 0 0 0 20.728-8.583 29.32 29.32 0 0 0 8.584-20.729v-35.54a29.304 29.304 0 0 0-8.584-20.724 29.311 29.311 0 0 0-20.728-8.589l-47.405.021Z" class="o"/><path fill-rule="evenodd" clip-rule="evenodd" d="M180.994 52.812v48.351h-14.656v-48.35h14.656Z" class="o"/><path d="M248.67 128.152h-84.042a36.635 36.635 0 0 0-25.912 10.73 36.658 36.658 0 0 0-10.731 25.907v33.887h30.186v38.297h60.345v-38.297h30.154v-70.524Z" class="i"/><path fill-rule="evenodd" clip-rule="evenodd" d="M133.537 133.699a43.965 43.965 0 0 1 31.09-12.878H256v85.186h-30.155v38.296h-75.001v-38.296h-30.18v-41.213a43.976 43.976 0 0 1 12.873-31.095Zm31.09 1.778a29.3 29.3 0 0 0-20.729 8.589 29.31 29.31 0 0 0-8.583 20.723v26.562h30.154v38.296h45.689v-38.296h30.155v-55.874h-76.686Z" class="o"/></svg>
