<svg width="338" height="198" viewBox="0 0 338 198" fill="none" xmlns="http://www.w3.org/2000/svg">
<path d="M13.0256 114.398C10.9801 114.398 9.16193 114.047 7.57102 113.347C5.98958 112.646 4.73958 111.67 3.82102 110.42C2.90246 109.17 2.41477 107.726 2.35795 106.088H7.69886C7.74621 106.874 8.00663 107.561 8.48011 108.148C8.9536 108.725 9.58333 109.175 10.3693 109.497C11.1553 109.819 12.036 109.98 13.0114 109.98C14.053 109.98 14.9763 109.8 15.7812 109.44C16.5862 109.071 17.2159 108.56 17.6705 107.906C18.125 107.253 18.3475 106.5 18.3381 105.648C18.3475 104.767 18.1203 103.991 17.6562 103.318C17.1922 102.646 16.5199 102.12 15.6392 101.741C14.768 101.363 13.7169 101.173 12.4858 101.173H9.91477V97.1108H12.4858C13.4991 97.1108 14.3845 96.9356 15.142 96.5852C15.9091 96.2348 16.5104 95.7424 16.946 95.108C17.3816 94.464 17.5947 93.7206 17.5852 92.8778C17.5947 92.054 17.41 91.339 17.0312 90.733C16.6619 90.1174 16.1364 89.6392 15.4545 89.2983C14.7822 88.9574 13.9915 88.7869 13.0824 88.7869C12.1922 88.7869 11.3684 88.9479 10.6108 89.2699C9.85322 89.5919 9.24242 90.0511 8.77841 90.6477C8.31439 91.2348 8.06818 91.9356 8.03977 92.75H2.96875C3.00663 91.1212 3.47538 89.6913 4.375 88.4602C5.28409 87.2197 6.49621 86.2538 8.01136 85.5625C9.52652 84.8617 11.2263 84.5114 13.1108 84.5114C15.0521 84.5114 16.7377 84.8759 18.1676 85.6051C19.607 86.3248 20.7197 87.2955 21.5057 88.517C22.2917 89.7386 22.6847 91.0881 22.6847 92.5653C22.6941 94.2036 22.2112 95.5767 21.2358 96.6847C20.2699 97.7926 19.0009 98.517 17.429 98.858V99.0852C19.4744 99.3693 21.0417 100.127 22.1307 101.358C23.2292 102.58 23.7737 104.099 23.7642 105.918C23.7642 107.546 23.3002 109.005 22.3722 110.293C21.4536 111.571 20.1847 112.575 18.5653 113.304C16.9555 114.033 15.1089 114.398 13.0256 114.398ZM33.8743 110.023L33.6896 111.585C33.5571 112.778 33.3203 113.991 32.9794 115.222C32.648 116.462 32.2976 117.603 31.9283 118.645C31.5589 119.687 31.2607 120.506 31.0334 121.102H27.5675C27.7 120.525 27.88 119.739 28.1072 118.744C28.344 117.75 28.5713 116.633 28.7891 115.392C29.0069 114.152 29.1536 112.892 29.2294 111.614L29.3288 110.023H33.8743ZM39.5774 114V110.193L49.6768 100.293C50.6428 99.3172 51.4477 98.4508 52.0916 97.6932C52.7356 96.9356 53.2185 96.2017 53.5405 95.4915C53.8625 94.7812 54.0234 94.0237 54.0234 93.2188C54.0234 92.3002 53.8151 91.5142 53.3984 90.8608C52.9818 90.1979 52.4089 89.6866 51.6797 89.3267C50.9505 88.9669 50.1219 88.7869 49.1939 88.7869C48.2375 88.7869 47.3994 88.9858 46.6797 89.3835C45.96 89.7718 45.4013 90.3258 45.0036 91.0455C44.6153 91.7652 44.4212 92.6222 44.4212 93.6165H39.407C39.407 91.7699 39.8284 90.1648 40.6712 88.8011C41.514 87.4375 42.674 86.3816 44.1513 85.6335C45.638 84.8854 47.3426 84.5114 49.2649 84.5114C51.2157 84.5114 52.9297 84.8759 54.407 85.6051C55.8842 86.3343 57.0301 87.3333 57.8445 88.6023C58.6683 89.8712 59.0803 91.3201 59.0803 92.9489C59.0803 94.0379 58.8719 95.108 58.4553 96.1591C58.0386 97.2102 57.3047 98.375 56.2536 99.6534C55.2119 100.932 53.7488 102.48 51.8643 104.298L46.8501 109.398V109.597H59.5206V114H39.5774ZM74.5206 84.5114C75.9126 84.5208 77.2668 84.767 78.5831 85.25C79.9089 85.7235 81.102 86.5 82.1626 87.5795C83.2232 88.6496 84.0661 90.0843 84.6911 91.8835C85.3161 93.6828 85.6286 95.9081 85.6286 98.5597C85.638 101.06 85.3729 103.295 84.8331 105.264C84.3028 107.224 83.5405 108.882 82.5462 110.236C81.5518 111.59 80.3539 112.622 78.9524 113.332C77.5509 114.043 75.9742 114.398 74.2223 114.398C72.3852 114.398 70.7564 114.038 69.3359 113.318C67.925 112.598 66.7839 111.614 65.9126 110.364C65.0414 109.114 64.5064 107.684 64.3075 106.074H69.4922C69.7573 107.229 70.2971 108.148 71.1115 108.83C71.9354 109.502 72.9723 109.838 74.2223 109.838C76.2393 109.838 77.7924 108.962 78.8814 107.21C79.9704 105.458 80.5149 103.025 80.5149 99.9091H80.3161C79.852 100.742 79.2507 101.462 78.5121 102.068C77.7734 102.665 76.9354 103.124 75.9979 103.446C75.0698 103.768 74.085 103.929 73.0433 103.929C71.3388 103.929 69.8047 103.522 68.4411 102.707C67.0869 101.893 66.0121 100.776 65.2166 99.3551C64.4306 97.9347 64.0329 96.3106 64.0234 94.483C64.0234 92.589 64.459 90.8892 65.3303 89.3835C66.2109 87.8684 67.4373 86.6752 69.0092 85.804C70.5812 84.9233 72.4183 84.4924 74.5206 84.5114ZM74.5348 88.7727C73.5121 88.7727 72.5888 89.0237 71.7649 89.5256C70.9505 90.018 70.3066 90.6903 69.8331 91.5426C69.3691 92.3854 69.1371 93.3277 69.1371 94.3693C69.1465 95.4015 69.3786 96.339 69.8331 97.1818C70.2971 98.0246 70.9268 98.6922 71.7223 99.1847C72.5272 99.6771 73.4458 99.9233 74.478 99.9233C75.245 99.9233 75.96 99.7765 76.6229 99.483C77.2857 99.1894 77.8634 98.7822 78.3558 98.2614C78.8577 97.7311 79.246 97.1297 79.5206 96.4574C79.8047 95.785 79.942 95.0748 79.9325 94.3267C79.9325 93.3324 79.6958 92.4138 79.2223 91.571C78.7583 90.7282 78.1191 90.0511 77.3047 89.5398C76.4998 89.0284 75.5765 88.7727 74.5348 88.7727ZM100.799 114.398C98.7536 114.398 96.9354 114.047 95.3445 113.347C93.763 112.646 92.513 111.67 91.5945 110.42C90.6759 109.17 90.1882 107.726 90.1314 106.088H95.4723C95.5196 106.874 95.7801 107.561 96.2536 108.148C96.727 108.725 97.3568 109.175 98.1428 109.497C98.9287 109.819 99.8094 109.98 100.785 109.98C101.826 109.98 102.75 109.8 103.555 109.44C104.36 109.071 104.989 108.56 105.444 107.906C105.898 107.253 106.121 106.5 106.112 105.648C106.121 104.767 105.894 103.991 105.43 103.318C104.966 102.646 104.293 102.12 103.413 101.741C102.541 101.363 101.49 101.173 100.259 101.173H97.6882V97.1108H100.259C101.272 97.1108 102.158 96.9356 102.915 96.5852C103.683 96.2348 104.284 95.7424 104.719 95.108C105.155 94.464 105.368 93.7206 105.359 92.8778C105.368 92.054 105.183 91.339 104.805 90.733C104.435 90.1174 103.91 89.6392 103.228 89.2983C102.556 88.9574 101.765 88.7869 100.856 88.7869C99.9657 88.7869 99.1418 88.9479 98.3842 89.2699C97.6267 89.5919 97.0159 90.0511 96.5518 90.6477C96.0878 91.2348 95.8416 91.9356 95.8132 92.75H90.7422C90.7801 91.1212 91.2488 89.6913 92.1484 88.4602C93.0575 87.2197 94.2696 86.2538 95.7848 85.5625C97.3 84.8617 98.9998 84.5114 100.884 84.5114C102.826 84.5114 104.511 84.8759 105.941 85.6051C107.38 86.3248 108.493 87.2955 109.279 88.517C110.065 89.7386 110.458 91.0881 110.458 92.5653C110.468 94.2036 109.985 95.5767 109.009 96.6847C108.043 97.7926 106.774 98.517 105.202 98.858V99.0852C107.248 99.3693 108.815 100.127 109.904 101.358C111.003 102.58 111.547 104.099 111.538 105.918C111.538 107.546 111.074 109.005 110.146 110.293C109.227 111.571 107.958 112.575 106.339 113.304C104.729 114.033 102.882 114.398 100.799 114.398Z" fill="#228BE6"/>
</svg>
