<svg width="340" height="199" viewBox="0 0 340 199" fill="none" xmlns="http://www.w3.org/2000/svg">
<path d="M339 199V1L336 3.20174L333.341 5.05509C330.683 6.90843 325.365 10.6151 320.048 26.5575C314.73 42.4999 309.413 70.6779 304.095 86.0776C298.778 101.477 293.46 104.099 288.143 92.1249C282.825 80.1511 277.508 53.5822 272.19 46.2083C266.873 38.8344 261.556 50.6555 256.238 45.9796C250.921 41.3037 245.603 20.1308 240.286 9.06251C234.968 -2.00579 229.651 -2.96949 224.333 14.3639C219.016 31.6973 213.698 67.3278 208.381 95.9933C203.063 124.659 197.746 146.359 192.429 134.945C187.111 123.53 181.794 79.0007 176.476 64.9032C171.159 50.8058 165.841 67.1404 160.524 86.7537C155.206 106.367 149.889 129.259 144.571 137.635C139.254 146.011 133.937 139.872 128.619 148.252C123.302 156.631 117.984 179.53 112.667 182.602C107.349 185.675 102.032 168.921 96.7143 163.404C91.3968 157.887 86.0794 163.606 80.7619 148.064C75.4445 132.522 70.127 95.7196 64.8095 90.0708C59.4921 84.422 54.1746 109.927 48.8571 111.664C43.5397 113.401 38.2222 91.3711 32.9048 102.776C27.5873 114.181 22.2698 159.022 16.9524 177.755C11.6349 196.489 6.31746 189.116 3.65873 185.429L1 181.742V199H339Z" fill="url(#paint0_linear_169_2095)"/>
<path d="M339 1L336 3.20174L333.341 5.05509C330.683 6.90843 325.365 10.6151 320.048 26.5575C314.73 42.4999 309.413 70.6779 304.095 86.0776C298.778 101.477 293.46 104.099 288.143 92.1249C282.825 80.1511 277.508 53.5822 272.19 46.2083C266.873 38.8344 261.556 50.6555 256.238 45.9796C250.921 41.3037 245.603 20.1308 240.286 9.06251C234.968 -2.00579 229.651 -2.96949 224.333 14.3639C219.016 31.6973 213.698 67.3278 208.381 95.9933C203.063 124.659 197.746 146.359 192.429 134.945C187.111 123.53 181.794 79.0007 176.476 64.9032C171.159 50.8058 165.841 67.1404 160.524 86.7537C155.206 106.367 149.889 129.259 144.571 137.635C139.254 146.011 133.937 139.872 128.619 148.252C123.302 156.631 117.984 179.53 112.667 182.602C107.349 185.675 102.032 168.921 96.7143 163.404C91.3968 157.887 86.0794 163.606 80.7619 148.064C75.4445 132.522 70.127 95.7196 64.8095 90.0708C59.4921 84.422 54.1746 109.927 48.8571 111.664C43.5397 113.401 38.2222 91.3711 32.9048 102.776C27.5873 114.181 22.2698 159.022 16.9524 177.755C11.6349 196.489 6.31746 189.116 3.65873 185.429L1 181.742" stroke="#228BE6" stroke-width="2" stroke-linecap="round"/>
<defs>
<linearGradient id="paint0_linear_169_2095" x1="170" y1="1" x2="170" y2="199" gradientUnits="userSpaceOnUse">
<stop stop-color="#228BE6" stop-opacity="0.46"/>
<stop offset="1" stop-color="#228BE6" stop-opacity="0"/>
</linearGradient>
</defs>
</svg>
