<svg width="340" height="199" viewBox="0 0 340 199" fill="none" xmlns="http://www.w3.org/2000/svg">
<path d="M1 199H339V161.228L336.653 134.952C334.306 108.677 329.611 56.1267 324.917 56.4332C320.222 56.7398 315.528 109.903 310.833 108.326C306.139 106.748 301.444 50.4285 296.75 22.7687C292.056 -4.8911 287.361 -3.89148 282.667 12.9145C277.972 29.7204 273.278 62.3326 268.583 89.7223C263.889 117.112 259.194 139.279 254.5 144.827C249.806 150.375 245.111 139.303 240.417 121.672C235.722 104.04 231.028 79.8484 226.333 85.4371C221.639 91.0258 216.944 126.395 212.25 122.989C207.556 119.584 202.861 77.4029 198.167 81.1206C193.472 84.8383 188.778 134.454 184.083 136.33C179.389 138.206 174.694 92.3422 170 64.4801C165.306 36.618 160.611 26.7581 155.917 42.1647C151.222 57.5713 146.528 98.2446 141.833 116.907C137.139 135.57 132.444 132.221 127.75 136.022C123.056 139.823 118.361 150.772 113.667 131.581C108.972 112.39 104.278 63.0569 99.5833 65.2644C94.8889 67.4718 90.1944 121.219 85.5 135.44C80.8056 149.661 76.1111 124.356 71.4167 109.81C66.7222 95.2631 62.0278 91.4756 57.3333 103.601C52.6389 115.727 47.9444 143.766 43.25 164.319C38.5556 184.871 33.8611 197.938 29.1667 184.576C24.4722 171.215 19.7778 131.425 15.0833 124.988C10.3889 118.551 5.69444 145.466 3.34722 158.923L1 172.381V199Z" fill="url(#paint0_linear_169_2106)"/>
<path d="M1 172.381L3.34722 158.923C5.69444 145.466 10.3889 118.551 15.0833 124.988C19.7778 131.425 24.4722 171.215 29.1667 184.576C33.8611 197.938 38.5556 184.871 43.25 164.319C47.9444 143.766 52.6389 115.727 57.3333 103.601C62.0278 91.4756 66.7222 95.2631 71.4167 109.81C76.1111 124.356 80.8056 149.661 85.5 135.44C90.1944 121.219 94.8889 67.4718 99.5833 65.2644C104.278 63.0569 108.972 112.39 113.667 131.581C118.361 150.772 123.056 139.823 127.75 136.022C132.444 132.221 137.139 135.57 141.833 116.907C146.528 98.2446 151.222 57.5713 155.917 42.1647C160.611 26.7581 165.306 36.618 170 64.4801C174.694 92.3422 179.389 138.206 184.083 136.33C188.778 134.454 193.472 84.8383 198.167 81.1206C202.861 77.4029 207.556 119.584 212.25 122.989C216.944 126.395 221.639 91.0258 226.333 85.4371C231.028 79.8484 235.722 104.04 240.417 121.672C245.111 139.303 249.806 150.375 254.5 144.827C259.194 139.279 263.889 117.112 268.583 89.7223C273.278 62.3327 277.972 29.7204 282.667 12.9145C287.361 -3.89148 292.056 -4.8911 296.75 22.7687C301.444 50.4285 306.139 106.748 310.833 108.326C315.528 109.903 320.222 56.7398 324.917 56.4332C329.611 56.1267 334.306 108.677 336.653 134.952L339 161.228" stroke="#228BE6" stroke-width="2" stroke-linecap="round"/>
<defs>
<linearGradient id="paint0_linear_169_2106" x1="170" y1="1" x2="170" y2="199" gradientUnits="userSpaceOnUse">
<stop stop-color="#228BE6" stop-opacity="0.46"/>
<stop offset="1" stop-color="#228BE6" stop-opacity="0"/>
</linearGradient>
</defs>
</svg>
