<svg width="338" height="198" viewBox="0 0 338 198" fill="none" xmlns="http://www.w3.org/2000/svg">
<g clip-path="url(#clip0_169_2118)">
<path d="M20 25C24.9706 25 29 20.9706 29 16C29 11.0294 24.9706 7 20 7C15.0294 7 11 11.0294 11 16C11 20.9706 15.0294 25 20 25Z" stroke="#172B4D" stroke-width="1.5" stroke-linecap="round" stroke-linejoin="round"/>
<path d="M20 17C21.6569 17 23 15.6569 23 14C23 12.3431 21.6569 11 20 11C18.3431 11 17 12.3431 17 14C17 15.6569 18.3431 17 20 17Z" stroke="#172B4D" stroke-width="1.5" stroke-linecap="round" stroke-linejoin="round"/>
<path d="M14.168 22.849C14.4155 22.0252 14.9219 21.3032 15.6122 20.79C16.3025 20.2768 17.1398 19.9997 18 20H22C22.8612 19.9997 23.6996 20.2774 24.3904 20.7918C25.0811 21.3062 25.5874 22.0298 25.834 22.855" stroke="#172B4D" stroke-width="1.5" stroke-linecap="round" stroke-linejoin="round"/>
</g>
<path d="M42.4091 22V10.3636H49.3864V11.6136H43.8182V15.5455H48.8636V16.7955H43.8182V22H42.4091ZM54.1861 22.2045C53.633 22.2045 53.1312 22.1004 52.6804 21.892C52.2296 21.6799 51.8717 21.375 51.6065 20.9773C51.3414 20.5758 51.2088 20.0909 51.2088 19.5227C51.2088 19.0227 51.3073 18.6174 51.5043 18.3068C51.7012 17.9924 51.9645 17.7462 52.294 17.5682C52.6236 17.3902 52.9872 17.2576 53.3849 17.1705C53.7865 17.0795 54.1899 17.0076 54.5952 16.9545C55.1255 16.8864 55.5554 16.8352 55.8849 16.8011C56.2183 16.7633 56.4607 16.7008 56.6122 16.6136C56.7675 16.5265 56.8452 16.375 56.8452 16.1591V16.1136C56.8452 15.553 56.6918 15.1174 56.3849 14.8068C56.0819 14.4962 55.6217 14.3409 55.0043 14.3409C54.3641 14.3409 53.8622 14.4811 53.4986 14.7614C53.1349 15.0417 52.8793 15.3409 52.7315 15.6591L51.4588 15.2045C51.6861 14.6742 51.9891 14.2614 52.3679 13.9659C52.7505 13.6667 53.1671 13.4583 53.6179 13.3409C54.0724 13.2197 54.5194 13.1591 54.9588 13.1591C55.2391 13.1591 55.5611 13.1932 55.9247 13.2614C56.2921 13.3258 56.6463 13.4602 56.9872 13.6648C57.3319 13.8693 57.6179 14.178 57.8452 14.5909C58.0724 15.0038 58.1861 15.5568 58.1861 16.25V22H56.8452V20.8182H56.777C56.6861 21.0076 56.5346 21.2102 56.3224 21.4261C56.1103 21.642 55.8281 21.8258 55.4759 21.9773C55.1236 22.1288 54.6937 22.2045 54.1861 22.2045ZM54.3906 21C54.9209 21 55.3679 20.8958 55.7315 20.6875C56.099 20.4792 56.3755 20.2102 56.5611 19.8807C56.7505 19.5511 56.8452 19.2045 56.8452 18.8409V17.6136C56.7884 17.6818 56.6634 17.7443 56.4702 17.8011C56.2808 17.8542 56.0611 17.9015 55.8111 17.9432C55.5649 17.9811 55.3243 18.0152 55.0895 18.0455C54.8584 18.072 54.6709 18.0947 54.527 18.1136C54.1785 18.1591 53.8527 18.233 53.5497 18.3352C53.2505 18.4337 53.008 18.5833 52.8224 18.7841C52.6406 18.9811 52.5497 19.25 52.5497 19.5909C52.5497 20.0568 52.7221 20.4091 53.0668 20.6477C53.4152 20.8826 53.8565 21 54.3906 21ZM61.9744 16.75V22H60.6335V13.2727H61.929V14.6364H62.0426C62.2472 14.1932 62.5578 13.8371 62.9744 13.5682C63.3911 13.2955 63.929 13.1591 64.5881 13.1591C65.179 13.1591 65.696 13.2803 66.1392 13.5227C66.5824 13.7614 66.9271 14.125 67.1733 14.6136C67.4195 15.0985 67.5426 15.7121 67.5426 16.4545V22H66.2017V16.5455C66.2017 15.8598 66.0237 15.3258 65.6676 14.9432C65.3116 14.5568 64.8229 14.3636 64.2017 14.3636C63.7737 14.3636 63.3911 14.4564 63.054 14.642C62.7206 14.8277 62.4574 15.0985 62.2642 15.4545C62.071 15.8106 61.9744 16.2424 61.9744 16.75ZM71.3338 16.75V22H69.9929V13.2727H71.2884V14.6364H71.402C71.6065 14.1932 71.9171 13.8371 72.3338 13.5682C72.7505 13.2955 73.2884 13.1591 73.9474 13.1591C74.5384 13.1591 75.0554 13.2803 75.4986 13.5227C75.9418 13.7614 76.2865 14.125 76.5327 14.6136C76.7789 15.0985 76.902 15.7121 76.902 16.4545V22H75.5611V16.5455C75.5611 15.8598 75.383 15.3258 75.027 14.9432C74.6709 14.5568 74.1823 14.3636 73.5611 14.3636C73.133 14.3636 72.7505 14.4564 72.4134 14.642C72.08 14.8277 71.8168 15.0985 71.6236 15.4545C71.4304 15.8106 71.3338 16.2424 71.3338 16.75ZM79.3523 22V13.2727H80.6932V22H79.3523ZM80.0341 11.8182C79.7727 11.8182 79.5473 11.7292 79.358 11.5511C79.1723 11.3731 79.0795 11.1591 79.0795 10.9091C79.0795 10.6591 79.1723 10.4451 79.358 10.267C79.5473 10.089 79.7727 10 80.0341 10C80.2955 10 80.5189 10.089 80.7045 10.267C80.8939 10.4451 80.9886 10.6591 80.9886 10.9091C80.9886 11.1591 80.8939 11.3731 80.7045 11.5511C80.5189 11.7292 80.2955 11.8182 80.0341 11.8182ZM86.8082 22.1818C85.9673 22.1818 85.242 21.9962 84.6321 21.625C84.026 21.25 83.5582 20.7273 83.2287 20.0568C82.9029 19.3826 82.7401 18.5985 82.7401 17.7045C82.7401 16.8106 82.9029 16.0227 83.2287 15.3409C83.5582 14.6553 84.0166 14.1212 84.6037 13.7386C85.1946 13.3523 85.884 13.1591 86.6719 13.1591C87.1264 13.1591 87.5753 13.2348 88.0185 13.3864C88.4616 13.5379 88.8651 13.7841 89.2287 14.125C89.5923 14.4621 89.8821 14.9091 90.098 15.4659C90.3139 16.0227 90.4219 16.7083 90.4219 17.5227V18.0909H83.6946V16.9318H89.0582C89.0582 16.4394 88.9598 16 88.7628 15.6136C88.5696 15.2273 88.2931 14.9223 87.9332 14.6989C87.5772 14.4754 87.1567 14.3636 86.6719 14.3636C86.1378 14.3636 85.6757 14.4962 85.2855 14.7614C84.8991 15.0227 84.6018 15.3636 84.3935 15.7841C84.1851 16.2045 84.081 16.6553 84.081 17.1364V17.9091C84.081 18.5682 84.1946 19.1269 84.4219 19.5852C84.6529 20.0398 84.973 20.3864 85.3821 20.625C85.7912 20.8598 86.2666 20.9773 86.8082 20.9773C87.1605 20.9773 87.4787 20.928 87.7628 20.8295C88.0507 20.7273 88.2988 20.5758 88.5071 20.375C88.7154 20.1705 88.8764 19.9167 88.9901 19.6136L90.2855 19.9773C90.1491 20.4167 89.92 20.803 89.598 21.1364C89.276 21.4659 88.8783 21.7235 88.4048 21.9091C87.9313 22.0909 87.3991 22.1818 86.8082 22.1818ZM97.1435 10.3636H98.8253L102.78 20.0227H102.916L106.871 10.3636H108.553V22H107.234V13.1591H107.121L103.484 22H102.212L98.5753 13.1591H98.4616V22H97.1435V10.3636ZM114.741 22.1818C113.954 22.1818 113.262 21.9943 112.668 21.6193C112.077 21.2443 111.615 20.7197 111.281 20.0455C110.952 19.3712 110.787 18.5833 110.787 17.6818C110.787 16.7727 110.952 15.9792 111.281 15.3011C111.615 14.6231 112.077 14.0966 112.668 13.7216C113.262 13.3466 113.954 13.1591 114.741 13.1591C115.529 13.1591 116.219 13.3466 116.81 13.7216C117.404 14.0966 117.866 14.6231 118.196 15.3011C118.529 15.9792 118.696 16.7727 118.696 17.6818C118.696 18.5833 118.529 19.3712 118.196 20.0455C117.866 20.7197 117.404 21.2443 116.81 21.6193C116.219 21.9943 115.529 22.1818 114.741 22.1818ZM114.741 20.9773C115.34 20.9773 115.832 20.8239 116.219 20.517C116.605 20.2102 116.891 19.8068 117.077 19.3068C117.262 18.8068 117.355 18.2652 117.355 17.6818C117.355 17.0985 117.262 16.5549 117.077 16.0511C116.891 15.5473 116.605 15.1402 116.219 14.8295C115.832 14.5189 115.34 14.3636 114.741 14.3636C114.143 14.3636 113.651 14.5189 113.264 14.8295C112.878 15.1402 112.592 15.5473 112.406 16.0511C112.221 16.5549 112.128 17.0985 112.128 17.6818C112.128 18.2652 112.221 18.8068 112.406 19.3068C112.592 19.8068 112.878 20.2102 113.264 20.517C113.651 20.8239 114.143 20.9773 114.741 20.9773ZM120.743 22V13.2727H122.038V14.5909H122.129C122.288 14.1591 122.576 13.8087 122.993 13.5398C123.41 13.2708 123.879 13.1364 124.402 13.1364C124.5 13.1364 124.624 13.1383 124.771 13.142C124.919 13.1458 125.031 13.1515 125.107 13.1591V14.5227C125.061 14.5114 124.957 14.4943 124.794 14.4716C124.635 14.4451 124.466 14.4318 124.288 14.4318C123.864 14.4318 123.485 14.5208 123.152 14.6989C122.822 14.8731 122.561 15.1155 122.368 15.4261C122.179 15.733 122.084 16.0833 122.084 16.4773V22H120.743ZM129.953 25.4545C129.305 25.4545 128.749 25.3712 128.283 25.2045C127.817 25.0417 127.429 24.8258 127.118 24.5568C126.811 24.2917 126.567 24.0076 126.385 23.7045L127.453 22.9545C127.574 23.1136 127.728 23.2955 127.913 23.5C128.099 23.7083 128.353 23.8883 128.675 24.0398C129 24.1951 129.427 24.2727 129.953 24.2727C130.658 24.2727 131.239 24.1023 131.697 23.7614C132.156 23.4205 132.385 22.8864 132.385 22.1591V20.3864H132.271C132.173 20.5455 132.033 20.7424 131.851 20.9773C131.673 21.2083 131.415 21.4148 131.078 21.5966C130.745 21.7746 130.294 21.8636 129.726 21.8636C129.021 21.8636 128.389 21.697 127.828 21.3636C127.271 21.0303 126.83 20.5455 126.504 19.9091C126.182 19.2727 126.021 18.5 126.021 17.5909C126.021 16.697 126.179 15.9186 126.493 15.2557C126.807 14.589 127.245 14.0739 127.805 13.7102C128.366 13.3428 129.014 13.1591 129.749 13.1591C130.317 13.1591 130.768 13.2538 131.101 13.4432C131.438 13.6288 131.696 13.8409 131.874 14.0795C132.055 14.3144 132.196 14.5076 132.294 14.6591H132.43V13.2727H133.726V22.25C133.726 23 133.555 23.6098 133.214 24.0795C132.877 24.553 132.423 24.8996 131.851 25.1193C131.283 25.3428 130.65 25.4545 129.953 25.4545ZM129.908 20.6591C130.446 20.6591 130.9 20.536 131.271 20.2898C131.643 20.0436 131.925 19.6894 132.118 19.2273C132.311 18.7652 132.408 18.2121 132.408 17.5682C132.408 16.9394 132.313 16.3845 132.124 15.9034C131.934 15.4223 131.654 15.0455 131.283 14.7727C130.911 14.5 130.453 14.3636 129.908 14.3636C129.339 14.3636 128.866 14.5076 128.487 14.7955C128.112 15.0833 127.83 15.4697 127.641 15.9545C127.455 16.4394 127.362 16.9773 127.362 17.5682C127.362 18.1742 127.457 18.7102 127.646 19.1761C127.839 19.6383 128.124 20.0019 128.499 20.267C128.877 20.5284 129.347 20.6591 129.908 20.6591ZM138.749 22.2045C138.196 22.2045 137.694 22.1004 137.243 21.892C136.792 21.6799 136.434 21.375 136.169 20.9773C135.904 20.5758 135.771 20.0909 135.771 19.5227C135.771 19.0227 135.87 18.6174 136.067 18.3068C136.264 17.9924 136.527 17.7462 136.857 17.5682C137.186 17.3902 137.55 17.2576 137.947 17.1705C138.349 17.0795 138.752 17.0076 139.158 16.9545C139.688 16.8864 140.118 16.8352 140.447 16.8011C140.781 16.7633 141.023 16.7008 141.175 16.6136C141.33 16.5265 141.408 16.375 141.408 16.1591V16.1136C141.408 15.553 141.254 15.1174 140.947 14.8068C140.644 14.4962 140.184 14.3409 139.567 14.3409C138.927 14.3409 138.425 14.4811 138.061 14.7614C137.697 15.0417 137.442 15.3409 137.294 15.6591L136.021 15.2045C136.249 14.6742 136.552 14.2614 136.93 13.9659C137.313 13.6667 137.73 13.4583 138.18 13.3409C138.635 13.2197 139.082 13.1591 139.521 13.1591C139.802 13.1591 140.124 13.1932 140.487 13.2614C140.855 13.3258 141.209 13.4602 141.55 13.6648C141.894 13.8693 142.18 14.178 142.408 14.5909C142.635 15.0038 142.749 15.5568 142.749 16.25V22H141.408V20.8182H141.339C141.249 21.0076 141.097 21.2102 140.885 21.4261C140.673 21.642 140.391 21.8258 140.038 21.9773C139.686 22.1288 139.256 22.2045 138.749 22.2045ZM138.953 21C139.483 21 139.93 20.8958 140.294 20.6875C140.661 20.4792 140.938 20.2102 141.124 19.8807C141.313 19.5511 141.408 19.2045 141.408 18.8409V17.6136C141.351 17.6818 141.226 17.7443 141.033 17.8011C140.843 17.8542 140.624 17.9015 140.374 17.9432C140.127 17.9811 139.887 18.0152 139.652 18.0455C139.421 18.072 139.233 18.0947 139.089 18.1136C138.741 18.1591 138.415 18.233 138.112 18.3352C137.813 18.4337 137.571 18.5833 137.385 18.7841C137.203 18.9811 137.112 19.25 137.112 19.5909C137.112 20.0568 137.285 20.4091 137.629 20.6477C137.978 20.8826 138.419 21 138.953 21ZM146.537 16.75V22H145.196V13.2727H146.491V14.6364H146.605C146.81 14.1932 147.12 13.8371 147.537 13.5682C147.954 13.2955 148.491 13.1591 149.151 13.1591C149.741 13.1591 150.259 13.2803 150.702 13.5227C151.145 13.7614 151.49 14.125 151.736 14.6136C151.982 15.0985 152.105 15.7121 152.105 16.4545V22H150.764V16.5455C150.764 15.8598 150.586 15.3258 150.23 14.9432C149.874 14.5568 149.385 14.3636 148.764 14.3636C148.336 14.3636 147.954 14.4564 147.616 14.642C147.283 14.8277 147.02 15.0985 146.827 15.4545C146.634 15.8106 146.537 16.2424 146.537 16.75Z" fill="#172B4D"/>
<rect x="175" y="8" width="163" height="16" rx="2" fill="#228BE6"/>
<g clip-path="url(#clip1_169_2118)">
<path d="M20 57C24.9706 57 29 52.9706 29 48C29 43.0294 24.9706 39 20 39C15.0294 39 11 43.0294 11 48C11 52.9706 15.0294 57 20 57Z" stroke="#172B4D" stroke-width="1.5" stroke-linecap="round" stroke-linejoin="round"/>
<path d="M20 49C21.6569 49 23 47.6569 23 46C23 44.3431 21.6569 43 20 43C18.3431 43 17 44.3431 17 46C17 47.6569 18.3431 49 20 49Z" stroke="#172B4D" stroke-width="1.5" stroke-linecap="round" stroke-linejoin="round"/>
<path d="M14.168 54.849C14.4155 54.0252 14.9219 53.3032 15.6122 52.79C16.3025 52.2768 17.1398 51.9997 18 52H22C22.8612 51.9997 23.6996 52.2774 24.3904 52.7918C25.0811 53.3062 25.5874 54.0298 25.834 54.855" stroke="#172B4D" stroke-width="1.5" stroke-linecap="round" stroke-linejoin="round"/>
</g>
<path d="M48.7727 45.2727C48.7045 44.697 48.428 44.25 47.9432 43.9318C47.4583 43.6136 46.8636 43.4545 46.1591 43.4545C45.6439 43.4545 45.1932 43.5379 44.8068 43.7045C44.4242 43.8712 44.125 44.1004 43.9091 44.392C43.697 44.6837 43.5909 45.0152 43.5909 45.3864C43.5909 45.697 43.6648 45.964 43.8125 46.1875C43.964 46.4072 44.1572 46.5909 44.392 46.7386C44.6269 46.8826 44.8731 47.0019 45.1307 47.0966C45.3883 47.1875 45.625 47.2614 45.8409 47.3182L47.0227 47.6364C47.3258 47.7159 47.6629 47.8258 48.0341 47.9659C48.4091 48.1061 48.767 48.2973 49.108 48.5398C49.4527 48.7784 49.7367 49.0852 49.9602 49.4602C50.1837 49.8352 50.2955 50.2955 50.2955 50.8409C50.2955 51.4697 50.1307 52.0379 49.8011 52.5455C49.4754 53.053 48.9981 53.4564 48.3693 53.7557C47.7443 54.0549 46.9848 54.2045 46.0909 54.2045C45.2576 54.2045 44.536 54.0701 43.9261 53.8011C43.3201 53.5322 42.8428 53.1572 42.4943 52.6761C42.1496 52.1951 41.9545 51.6364 41.9091 51H43.3636C43.4015 51.4394 43.5492 51.803 43.8068 52.0909C44.0682 52.375 44.3977 52.5871 44.7955 52.7273C45.197 52.8636 45.6288 52.9318 46.0909 52.9318C46.6288 52.9318 47.1117 52.8447 47.5398 52.6705C47.9678 52.4924 48.3068 52.2462 48.5568 51.9318C48.8068 51.6136 48.9318 51.2424 48.9318 50.8182C48.9318 50.4318 48.8239 50.1174 48.608 49.875C48.392 49.6326 48.108 49.4356 47.7557 49.2841C47.4034 49.1326 47.0227 49 46.6136 48.8864L45.1818 48.4773C44.2727 48.2159 43.553 47.8428 43.0227 47.358C42.4924 46.8731 42.2273 46.2386 42.2273 45.4545C42.2273 44.803 42.4034 44.2348 42.7557 43.75C43.1117 43.2614 43.589 42.8826 44.1875 42.6136C44.7898 42.3409 45.4621 42.2045 46.2045 42.2045C46.9545 42.2045 47.6212 42.339 48.2045 42.608C48.7879 42.8731 49.25 43.2367 49.5909 43.6989C49.9356 44.161 50.1174 44.6856 50.1364 45.2727H48.7727ZM53.294 57.2727C53.0668 57.2727 52.8641 57.2538 52.6861 57.2159C52.508 57.1818 52.3849 57.1477 52.3168 57.1136L52.6577 55.9318C52.9834 56.0152 53.2713 56.0455 53.5213 56.0227C53.7713 56 53.9929 55.8883 54.1861 55.6875C54.383 55.4905 54.563 55.1705 54.7259 54.7273L54.9759 54.0455L51.7486 45.2727H53.2031L55.6122 52.2273H55.7031L58.1122 45.2727H59.5668L55.8622 55.2727C55.6955 55.7235 55.4891 56.0966 55.2429 56.392C54.9967 56.6913 54.7107 56.9129 54.3849 57.0568C54.063 57.2008 53.6993 57.2727 53.294 57.2727ZM62.6776 42.3636V54H61.3366V42.3636H62.6776ZM72.2699 45.2727L69.0426 54H67.679L64.4517 45.2727H65.9062L68.3153 52.2273H68.4062L70.8153 45.2727H72.2699ZM74.0398 54V45.2727H75.3807V54H74.0398ZM74.7216 43.8182C74.4602 43.8182 74.2348 43.7292 74.0455 43.5511C73.8598 43.3731 73.767 43.1591 73.767 42.9091C73.767 42.6591 73.8598 42.4451 74.0455 42.267C74.2348 42.089 74.4602 42 74.7216 42C74.983 42 75.2064 42.089 75.392 42.267C75.5814 42.4451 75.6761 42.6591 75.6761 42.9091C75.6761 43.1591 75.5814 43.3731 75.392 43.5511C75.2064 43.7292 74.983 43.8182 74.7216 43.8182ZM80.4048 54.2045C79.8518 54.2045 79.3499 54.1004 78.8991 53.892C78.4484 53.6799 78.0904 53.375 77.8253 52.9773C77.5601 52.5758 77.4276 52.0909 77.4276 51.5227C77.4276 51.0227 77.526 50.6174 77.723 50.3068C77.92 49.9924 78.1832 49.7462 78.5128 49.5682C78.8423 49.3902 79.206 49.2576 79.6037 49.1705C80.0052 49.0795 80.4086 49.0076 80.8139 48.9545C81.3442 48.8864 81.7741 48.8352 82.1037 48.8011C82.437 48.7633 82.6795 48.7008 82.831 48.6136C82.9863 48.5265 83.0639 48.375 83.0639 48.1591V48.1136C83.0639 47.553 82.9105 47.1174 82.6037 46.8068C82.3007 46.4962 81.8404 46.3409 81.223 46.3409C80.5829 46.3409 80.081 46.4811 79.7173 46.7614C79.3537 47.0417 79.098 47.3409 78.9503 47.6591L77.6776 47.2045C77.9048 46.6742 78.2079 46.2614 78.5866 45.9659C78.9692 45.6667 79.3859 45.4583 79.8366 45.3409C80.2912 45.2197 80.7382 45.1591 81.1776 45.1591C81.4579 45.1591 81.7798 45.1932 82.1435 45.2614C82.5109 45.3258 82.8651 45.4602 83.206 45.6648C83.5507 45.8693 83.8366 46.178 84.0639 46.5909C84.2912 47.0038 84.4048 47.5568 84.4048 48.25V54H83.0639V52.8182H82.9957C82.9048 53.0076 82.7533 53.2102 82.5412 53.4261C82.3291 53.642 82.0469 53.8258 81.6946 53.9773C81.3423 54.1288 80.9124 54.2045 80.4048 54.2045ZM80.6094 53C81.1397 53 81.5866 52.8958 81.9503 52.6875C82.3177 52.4792 82.5942 52.2102 82.7798 51.8807C82.9692 51.5511 83.0639 51.2045 83.0639 50.8409V49.6136C83.0071 49.6818 82.8821 49.7443 82.6889 49.8011C82.4995 49.8542 82.2798 49.9015 82.0298 49.9432C81.7836 49.9811 81.5431 50.0152 81.3082 50.0455C81.0772 50.072 80.8897 50.0947 80.7457 50.1136C80.3973 50.1591 80.0715 50.233 79.7685 50.3352C79.4692 50.4337 79.2268 50.5833 79.0412 50.7841C78.8594 50.9811 78.7685 51.25 78.7685 51.5909C78.7685 52.0568 78.9408 52.4091 79.2855 52.6477C79.634 52.8826 80.0753 53 80.6094 53ZM90.8977 43.6136V42.3636H99.625V43.6136H95.9659V54H94.5568V43.6136H90.8977ZM102.999 54.2045C102.446 54.2045 101.944 54.1004 101.493 53.892C101.042 53.6799 100.684 53.375 100.419 52.9773C100.154 52.5758 100.021 52.0909 100.021 51.5227C100.021 51.0227 100.12 50.6174 100.317 50.3068C100.514 49.9924 100.777 49.7462 101.107 49.5682C101.436 49.3902 101.8 49.2576 102.197 49.1705C102.599 49.0795 103.002 49.0076 103.408 48.9545C103.938 48.8864 104.368 48.8352 104.697 48.8011C105.031 48.7633 105.273 48.7008 105.425 48.6136C105.58 48.5265 105.658 48.375 105.658 48.1591V48.1136C105.658 47.553 105.504 47.1174 105.197 46.8068C104.894 46.4962 104.434 46.3409 103.817 46.3409C103.177 46.3409 102.675 46.4811 102.311 46.7614C101.947 47.0417 101.692 47.3409 101.544 47.6591L100.271 47.2045C100.499 46.6742 100.802 46.2614 101.18 45.9659C101.563 45.6667 101.98 45.4583 102.43 45.3409C102.885 45.2197 103.332 45.1591 103.771 45.1591C104.052 45.1591 104.374 45.1932 104.737 45.2614C105.105 45.3258 105.459 45.4602 105.8 45.6648C106.144 45.8693 106.43 46.178 106.658 46.5909C106.885 47.0038 106.999 47.5568 106.999 48.25V54H105.658V52.8182H105.589C105.499 53.0076 105.347 53.2102 105.135 53.4261C104.923 53.642 104.641 53.8258 104.288 53.9773C103.936 54.1288 103.506 54.2045 102.999 54.2045ZM103.203 53C103.733 53 104.18 52.8958 104.544 52.6875C104.911 52.4792 105.188 52.2102 105.374 51.8807C105.563 51.5511 105.658 51.2045 105.658 50.8409V49.6136C105.601 49.6818 105.476 49.7443 105.283 49.8011C105.093 49.8542 104.874 49.9015 104.624 49.9432C104.377 49.9811 104.137 50.0152 103.902 50.0455C103.671 50.072 103.483 50.0947 103.339 50.1136C102.991 50.1591 102.665 50.233 102.362 50.3352C102.063 50.4337 101.821 50.5833 101.635 50.7841C101.453 50.9811 101.362 51.25 101.362 51.5909C101.362 52.0568 101.535 52.4091 101.879 52.6477C102.228 52.8826 102.669 53 103.203 53ZM113.241 45.2727V46.4091H108.719V45.2727H113.241ZM110.037 43.1818H111.378V51.5C111.378 51.8788 111.433 52.1629 111.543 52.3523C111.656 52.5379 111.8 52.6629 111.974 52.7273C112.152 52.7879 112.34 52.8182 112.537 52.8182C112.685 52.8182 112.806 52.8106 112.901 52.7955C112.995 52.7765 113.071 52.7614 113.128 52.75L113.401 53.9545C113.31 53.9886 113.183 54.0227 113.02 54.0568C112.857 54.0947 112.651 54.1136 112.401 54.1136C112.022 54.1136 111.651 54.0322 111.287 53.8693C110.927 53.7064 110.628 53.4583 110.389 53.125C110.154 52.7917 110.037 52.3712 110.037 51.8636V43.1818ZM118.824 54.1818C117.983 54.1818 117.258 53.9962 116.648 53.625C116.042 53.25 115.574 52.7273 115.244 52.0568C114.919 51.3826 114.756 50.5985 114.756 49.7045C114.756 48.8106 114.919 48.0227 115.244 47.3409C115.574 46.6553 116.032 46.1212 116.619 45.7386C117.21 45.3523 117.9 45.1591 118.688 45.1591C119.142 45.1591 119.591 45.2348 120.034 45.3864C120.477 45.5379 120.881 45.7841 121.244 46.125C121.608 46.4621 121.898 46.9091 122.114 47.4659C122.33 48.0227 122.438 48.7083 122.438 49.5227V50.0909H115.71V48.9318H121.074C121.074 48.4394 120.975 48 120.778 47.6136C120.585 47.2273 120.309 46.9223 119.949 46.6989C119.593 46.4754 119.172 46.3636 118.688 46.3636C118.153 46.3636 117.691 46.4962 117.301 46.7614C116.915 47.0227 116.617 47.3636 116.409 47.7841C116.201 48.2045 116.097 48.6553 116.097 49.1364V49.9091C116.097 50.5682 116.21 51.1269 116.438 51.5852C116.669 52.0398 116.989 52.3864 117.398 52.625C117.807 52.8598 118.282 52.9773 118.824 52.9773C119.176 52.9773 119.494 52.928 119.778 52.8295C120.066 52.7273 120.314 52.5758 120.523 52.375C120.731 52.1705 120.892 51.9167 121.006 51.6136L122.301 51.9773C122.165 52.4167 121.936 52.803 121.614 53.1364C121.292 53.4659 120.894 53.7235 120.42 53.9091C119.947 54.0909 119.415 54.1818 118.824 54.1818Z" fill="#172B4D"/>
<rect x="175" y="40" width="124" height="16" rx="2" fill="#228BE6"/>
<g clip-path="url(#clip2_169_2118)">
<path d="M20 89C24.9706 89 29 84.9706 29 80C29 75.0294 24.9706 71 20 71C15.0294 71 11 75.0294 11 80C11 84.9706 15.0294 89 20 89Z" stroke="#172B4D" stroke-width="1.5" stroke-linecap="round" stroke-linejoin="round"/>
<path d="M20 81C21.6569 81 23 79.6569 23 78C23 76.3431 21.6569 75 20 75C18.3431 75 17 76.3431 17 78C17 79.6569 18.3431 81 20 81Z" stroke="#172B4D" stroke-width="1.5" stroke-linecap="round" stroke-linejoin="round"/>
<path d="M14.168 86.849C14.4155 86.0252 14.9219 85.3032 15.6122 84.79C16.3025 84.2768 17.1398 83.9997 18 84H22C22.8612 83.9997 23.6996 84.2774 24.3904 84.7918C25.0811 85.3062 25.5874 86.0298 25.834 86.855" stroke="#172B4D" stroke-width="1.5" stroke-linecap="round" stroke-linejoin="round"/>
</g>
<path d="M51.7727 78H50.3636C50.2803 77.5947 50.1345 77.2386 49.9261 76.9318C49.7216 76.625 49.4716 76.3674 49.1761 76.1591C48.8845 75.947 48.5606 75.7879 48.2045 75.6818C47.8485 75.5758 47.4773 75.5227 47.0909 75.5227C46.3864 75.5227 45.7481 75.7008 45.1761 76.0568C44.608 76.4129 44.1553 76.9375 43.8182 77.6307C43.4848 78.3239 43.3182 79.1742 43.3182 80.1818C43.3182 81.1894 43.4848 82.0398 43.8182 82.733C44.1553 83.4261 44.608 83.9508 45.1761 84.3068C45.7481 84.6629 46.3864 84.8409 47.0909 84.8409C47.4773 84.8409 47.8485 84.7879 48.2045 84.6818C48.5606 84.5758 48.8845 84.4186 49.1761 84.2102C49.4716 83.9981 49.7216 83.7386 49.9261 83.4318C50.1345 83.1212 50.2803 82.7652 50.3636 82.3636H51.7727C51.6667 82.9583 51.4735 83.4905 51.1932 83.9602C50.9129 84.4299 50.5644 84.8295 50.1477 85.1591C49.7311 85.4848 49.2633 85.733 48.7443 85.9034C48.2292 86.0739 47.678 86.1591 47.0909 86.1591C46.0985 86.1591 45.2159 85.9167 44.4432 85.4318C43.6705 84.947 43.0625 84.2576 42.6193 83.3636C42.1761 82.4697 41.9545 81.4091 41.9545 80.1818C41.9545 78.9545 42.1761 77.8939 42.6193 77C43.0625 76.1061 43.6705 75.4167 44.4432 74.9318C45.2159 74.447 46.0985 74.2045 47.0909 74.2045C47.678 74.2045 48.2292 74.2898 48.7443 74.4602C49.2633 74.6307 49.7311 74.8807 50.1477 75.2102C50.5644 75.536 50.9129 75.9337 51.1932 76.4034C51.4735 76.8693 51.6667 77.4015 51.7727 78ZM56.4361 86.2045C55.883 86.2045 55.3812 86.1004 54.9304 85.892C54.4796 85.6799 54.1217 85.375 53.8565 84.9773C53.5914 84.5758 53.4588 84.0909 53.4588 83.5227C53.4588 83.0227 53.5573 82.6174 53.7543 82.3068C53.9512 81.9924 54.2145 81.7462 54.544 81.5682C54.8736 81.3902 55.2372 81.2576 55.6349 81.1705C56.0365 81.0795 56.4399 81.0076 56.8452 80.9545C57.3755 80.8864 57.8054 80.8352 58.1349 80.8011C58.4683 80.7633 58.7107 80.7008 58.8622 80.6136C59.0175 80.5265 59.0952 80.375 59.0952 80.1591V80.1136C59.0952 79.553 58.9418 79.1174 58.6349 78.8068C58.3319 78.4962 57.8717 78.3409 57.2543 78.3409C56.6141 78.3409 56.1122 78.4811 55.7486 78.7614C55.3849 79.0417 55.1293 79.3409 54.9815 79.6591L53.7088 79.2045C53.9361 78.6742 54.2391 78.2614 54.6179 77.9659C55.0005 77.6667 55.4171 77.4583 55.8679 77.3409C56.3224 77.2197 56.7694 77.1591 57.2088 77.1591C57.4891 77.1591 57.8111 77.1932 58.1747 77.2614C58.5421 77.3258 58.8963 77.4602 59.2372 77.6648C59.5819 77.8693 59.8679 78.178 60.0952 78.5909C60.3224 79.0038 60.4361 79.5568 60.4361 80.25V86H59.0952V84.8182H59.027C58.9361 85.0076 58.7846 85.2102 58.5724 85.4261C58.3603 85.642 58.0781 85.8258 57.7259 85.9773C57.3736 86.1288 56.9437 86.2045 56.4361 86.2045ZM56.6406 85C57.1709 85 57.6179 84.8958 57.9815 84.6875C58.349 84.4792 58.6255 84.2102 58.8111 83.8807C59.0005 83.5511 59.0952 83.2045 59.0952 82.8409V81.6136C59.0384 81.6818 58.9134 81.7443 58.7202 81.8011C58.5308 81.8542 58.3111 81.9015 58.0611 81.9432C57.8149 81.9811 57.5743 82.0152 57.3395 82.0455C57.1084 82.072 56.9209 82.0947 56.777 82.1136C56.4285 82.1591 56.1027 82.233 55.7997 82.3352C55.5005 82.4337 55.258 82.5833 55.0724 82.7841C54.8906 82.9811 54.7997 83.25 54.7997 83.5909C54.7997 84.0568 54.9721 84.4091 55.3168 84.6477C55.6652 84.8826 56.1065 85 56.6406 85ZM62.8835 86V77.2727H64.179V78.5909H64.2699C64.429 78.1591 64.7169 77.8087 65.1335 77.5398C65.5502 77.2708 66.0199 77.1364 66.5426 77.1364C66.6411 77.1364 66.7642 77.1383 66.9119 77.142C67.0597 77.1458 67.1714 77.1515 67.2472 77.1591V78.5227C67.2017 78.5114 67.0975 78.4943 66.9347 78.4716C66.7756 78.4451 66.607 78.4318 66.429 78.4318C66.0047 78.4318 65.6259 78.5208 65.2926 78.6989C64.9631 78.8731 64.7017 79.1155 64.5085 79.4261C64.3191 79.733 64.2244 80.0833 64.2244 80.4773V86H62.8835ZM68.8366 86V77.2727H70.1321V78.5909H70.223C70.3821 78.1591 70.67 77.8087 71.0866 77.5398C71.5033 77.2708 71.973 77.1364 72.4957 77.1364C72.5942 77.1364 72.7173 77.1383 72.8651 77.142C73.0128 77.1458 73.1245 77.1515 73.2003 77.1591V78.5227C73.1548 78.5114 73.0507 78.4943 72.8878 78.4716C72.7287 78.4451 72.5601 78.4318 72.3821 78.4318C71.9579 78.4318 71.5791 78.5208 71.2457 78.6989C70.9162 78.8731 70.6548 79.1155 70.4616 79.4261C70.2723 79.733 70.1776 80.0833 70.1776 80.4773V86H68.8366ZM74.7898 86V77.2727H76.1307V86H74.7898ZM75.4716 75.8182C75.2102 75.8182 74.9848 75.7292 74.7955 75.5511C74.6098 75.3731 74.517 75.1591 74.517 74.9091C74.517 74.6591 74.6098 74.4451 74.7955 74.267C74.9848 74.089 75.2102 74 75.4716 74C75.733 74 75.9564 74.089 76.142 74.267C76.3314 74.4451 76.4261 74.6591 76.4261 74.9091C76.4261 75.1591 76.3314 75.3731 76.142 75.5511C75.9564 75.7292 75.733 75.8182 75.4716 75.8182ZM82.2457 86.1818C81.4048 86.1818 80.6795 85.9962 80.0696 85.625C79.4635 85.25 78.9957 84.7273 78.6662 84.0568C78.3404 83.3826 78.1776 82.5985 78.1776 81.7045C78.1776 80.8106 78.3404 80.0227 78.6662 79.3409C78.9957 78.6553 79.4541 78.1212 80.0412 77.7386C80.6321 77.3523 81.3215 77.1591 82.1094 77.1591C82.5639 77.1591 83.0128 77.2348 83.456 77.3864C83.8991 77.5379 84.3026 77.7841 84.6662 78.125C85.0298 78.4621 85.3196 78.9091 85.5355 79.4659C85.7514 80.0227 85.8594 80.7083 85.8594 81.5227V82.0909H79.1321V80.9318H84.4957C84.4957 80.4394 84.3973 80 84.2003 79.6136C84.0071 79.2273 83.7306 78.9223 83.3707 78.6989C83.0147 78.4754 82.5942 78.3636 82.1094 78.3636C81.5753 78.3636 81.1132 78.4962 80.723 78.7614C80.3366 79.0227 80.0393 79.3636 79.831 79.7841C79.6226 80.2045 79.5185 80.6553 79.5185 81.1364V81.9091C79.5185 82.5682 79.6321 83.1269 79.8594 83.5852C80.0904 84.0398 80.4105 84.3864 80.8196 84.625C81.2287 84.8598 81.7041 84.9773 82.2457 84.9773C82.598 84.9773 82.9162 84.928 83.2003 84.8295C83.4882 84.7273 83.7363 84.5758 83.9446 84.375C84.1529 84.1705 84.3139 83.9167 84.4276 83.6136L85.723 83.9773C85.5866 84.4167 85.3575 84.803 85.0355 85.1364C84.7135 85.4659 84.3158 85.7235 83.8423 85.9091C83.3688 86.0909 82.8366 86.1818 82.2457 86.1818ZM92.581 86V74.3636H96.5128C97.4219 74.3636 98.1681 74.5189 98.7514 74.8295C99.3348 75.1364 99.7666 75.5587 100.047 76.0966C100.327 76.6345 100.467 77.2462 100.467 77.9318C100.467 78.6174 100.327 79.2254 100.047 79.7557C99.7666 80.286 99.3366 80.7027 98.7571 81.0057C98.1776 81.3049 97.437 81.4545 96.5355 81.4545H93.3537V80.1818H96.4901C97.1113 80.1818 97.6113 80.0909 97.9901 79.9091C98.3726 79.7273 98.6491 79.4697 98.8196 79.1364C98.9938 78.7992 99.081 78.3977 99.081 77.9318C99.081 77.4659 98.9938 77.0587 98.8196 76.7102C98.6454 76.3617 98.367 76.0928 97.9844 75.9034C97.6018 75.7102 97.0961 75.6136 96.4673 75.6136H93.9901V86H92.581ZM98.0582 80.7727L100.922 86H99.2855L96.4673 80.7727H98.0582ZM102.634 86V77.2727H103.974V86H102.634ZM103.315 75.8182C103.054 75.8182 102.829 75.7292 102.639 75.5511C102.454 75.3731 102.361 75.1591 102.361 74.9091C102.361 74.6591 102.454 74.4451 102.639 74.267C102.829 74.089 103.054 74 103.315 74C103.577 74 103.8 74.089 103.986 74.267C104.175 74.4451 104.27 74.6591 104.27 74.9091C104.27 75.1591 104.175 75.3731 103.986 75.5511C103.8 75.7292 103.577 75.8182 103.315 75.8182ZM109.976 86.1818C109.188 86.1818 108.497 85.9943 107.902 85.6193C107.311 85.2443 106.849 84.7197 106.516 84.0455C106.186 83.3712 106.021 82.5833 106.021 81.6818C106.021 80.7727 106.186 79.9792 106.516 79.3011C106.849 78.6231 107.311 78.0966 107.902 77.7216C108.497 77.3466 109.188 77.1591 109.976 77.1591C110.764 77.1591 111.453 77.3466 112.044 77.7216C112.639 78.0966 113.101 78.6231 113.43 79.3011C113.764 79.9792 113.93 80.7727 113.93 81.6818C113.93 82.5833 113.764 83.3712 113.43 84.0455C113.101 84.7197 112.639 85.2443 112.044 85.6193C111.453 85.9943 110.764 86.1818 109.976 86.1818ZM109.976 84.9773C110.574 84.9773 111.067 84.8239 111.453 84.517C111.839 84.2102 112.125 83.8068 112.311 83.3068C112.497 82.8068 112.589 82.2652 112.589 81.6818C112.589 81.0985 112.497 80.5549 112.311 80.0511C112.125 79.5473 111.839 79.1402 111.453 78.8295C111.067 78.5189 110.574 78.3636 109.976 78.3636C109.377 78.3636 108.885 78.5189 108.499 78.8295C108.112 79.1402 107.826 79.5473 107.641 80.0511C107.455 80.5549 107.362 81.0985 107.362 81.6818C107.362 82.2652 107.455 82.8068 107.641 83.3068C107.826 83.8068 108.112 84.2102 108.499 84.517C108.885 84.8239 109.377 84.9773 109.976 84.9773ZM122.159 79.2273L120.955 79.5682C120.879 79.3674 120.767 79.1723 120.619 78.983C120.475 78.7898 120.278 78.6307 120.028 78.5057C119.778 78.3807 119.458 78.3182 119.068 78.3182C118.534 78.3182 118.089 78.4413 117.733 78.6875C117.381 78.9299 117.205 79.2386 117.205 79.6136C117.205 79.947 117.326 80.2102 117.568 80.4034C117.811 80.5966 118.189 80.7576 118.705 80.8864L120 81.2045C120.78 81.3939 121.362 81.6837 121.744 82.0739C122.127 82.4602 122.318 82.9583 122.318 83.5682C122.318 84.0682 122.174 84.5152 121.886 84.9091C121.602 85.303 121.205 85.6136 120.693 85.8409C120.182 86.0682 119.587 86.1818 118.909 86.1818C118.019 86.1818 117.282 85.9886 116.699 85.6023C116.116 85.2159 115.746 84.6515 115.591 83.9091L116.864 83.5909C116.985 84.0606 117.214 84.4129 117.551 84.6477C117.892 84.8826 118.337 85 118.886 85C119.511 85 120.008 84.8674 120.375 84.6023C120.746 84.3333 120.932 84.0114 120.932 83.6364C120.932 83.3333 120.826 83.0795 120.614 82.875C120.402 82.6667 120.076 82.5114 119.636 82.4091L118.182 82.0682C117.383 81.8788 116.795 81.5852 116.42 81.1875C116.049 80.786 115.864 80.2841 115.864 79.6818C115.864 79.1894 116.002 78.7538 116.278 78.375C116.559 77.9962 116.939 77.6989 117.42 77.483C117.905 77.267 118.455 77.1591 119.068 77.1591C119.932 77.1591 120.61 77.3485 121.102 77.7273C121.598 78.1061 121.951 78.6061 122.159 79.2273Z" fill="#172B4D"/>
<rect x="175" y="72" width="107" height="16" rx="2" fill="#228BE6"/>
<g clip-path="url(#clip3_169_2118)">
<path d="M20 121C24.9706 121 29 116.971 29 112C29 107.029 24.9706 103 20 103C15.0294 103 11 107.029 11 112C11 116.971 15.0294 121 20 121Z" stroke="#172B4D" stroke-width="1.5" stroke-linecap="round" stroke-linejoin="round"/>
<path d="M20 113C21.6569 113 23 111.657 23 110C23 108.343 21.6569 107 20 107C18.3431 107 17 108.343 17 110C17 111.657 18.3431 113 20 113Z" stroke="#172B4D" stroke-width="1.5" stroke-linecap="round" stroke-linejoin="round"/>
<path d="M14.168 118.849C14.4155 118.025 14.9219 117.303 15.6122 116.79C16.3025 116.277 17.1398 116 18 116H22C22.8612 116 23.6996 116.277 24.3904 116.792C25.0811 117.306 25.5874 118.03 25.834 118.855" stroke="#172B4D" stroke-width="1.5" stroke-linecap="round" stroke-linejoin="round"/>
</g>
<path d="M42.4091 118V106.364H49.4318V107.614H43.8182V111.545H49.0682V112.795H43.8182V116.75H49.5227V118H42.4091ZM54.358 118.205C53.8049 118.205 53.303 118.1 52.8523 117.892C52.4015 117.68 52.0436 117.375 51.7784 116.977C51.5133 116.576 51.3807 116.091 51.3807 115.523C51.3807 115.023 51.4792 114.617 51.6761 114.307C51.8731 113.992 52.1364 113.746 52.4659 113.568C52.7955 113.39 53.1591 113.258 53.5568 113.17C53.9583 113.08 54.3617 113.008 54.767 112.955C55.2973 112.886 55.7273 112.835 56.0568 112.801C56.3902 112.763 56.6326 112.701 56.7841 112.614C56.9394 112.527 57.017 112.375 57.017 112.159V112.114C57.017 111.553 56.8636 111.117 56.5568 110.807C56.2538 110.496 55.7936 110.341 55.1761 110.341C54.536 110.341 54.0341 110.481 53.6705 110.761C53.3068 111.042 53.0511 111.341 52.9034 111.659L51.6307 111.205C51.858 110.674 52.161 110.261 52.5398 109.966C52.9223 109.667 53.339 109.458 53.7898 109.341C54.2443 109.22 54.6913 109.159 55.1307 109.159C55.411 109.159 55.733 109.193 56.0966 109.261C56.464 109.326 56.8182 109.46 57.1591 109.665C57.5038 109.869 57.7898 110.178 58.017 110.591C58.2443 111.004 58.358 111.557 58.358 112.25V118H57.017V116.818H56.9489C56.858 117.008 56.7064 117.21 56.4943 117.426C56.2822 117.642 56 117.826 55.6477 117.977C55.2955 118.129 54.8655 118.205 54.358 118.205ZM54.5625 117C55.0928 117 55.5398 116.896 55.9034 116.688C56.2708 116.479 56.5473 116.21 56.733 115.881C56.9223 115.551 57.017 115.205 57.017 114.841V113.614C56.9602 113.682 56.8352 113.744 56.642 113.801C56.4527 113.854 56.233 113.902 55.983 113.943C55.7367 113.981 55.4962 114.015 55.2614 114.045C55.0303 114.072 54.8428 114.095 54.6989 114.114C54.3504 114.159 54.0246 114.233 53.7216 114.335C53.4223 114.434 53.1799 114.583 52.9943 114.784C52.8125 114.981 52.7216 115.25 52.7216 115.591C52.7216 116.057 52.8939 116.409 53.2386 116.648C53.5871 116.883 54.0284 117 54.5625 117ZM60.8054 118V109.273H62.1009V110.591H62.1918C62.3509 110.159 62.6387 109.809 63.0554 109.54C63.4721 109.271 63.9418 109.136 64.4645 109.136C64.563 109.136 64.6861 109.138 64.8338 109.142C64.9815 109.146 65.0933 109.152 65.169 109.159V110.523C65.1236 110.511 65.0194 110.494 64.8565 110.472C64.6974 110.445 64.5289 110.432 64.3509 110.432C63.9266 110.432 63.5478 110.521 63.2145 110.699C62.8849 110.873 62.6236 111.116 62.4304 111.426C62.241 111.733 62.1463 112.083 62.1463 112.477V118H60.8054ZM68.0994 106.364V118H66.7585V106.364H68.0994ZM75.2372 106.364H76.919L80.8736 116.023H81.0099L84.9645 106.364H86.6463V118H85.3281V109.159H85.2145L81.5781 118H80.3054L76.669 109.159H76.5554V118H75.2372V106.364ZM91.858 118.205C91.3049 118.205 90.803 118.1 90.3523 117.892C89.9015 117.68 89.5436 117.375 89.2784 116.977C89.0133 116.576 88.8807 116.091 88.8807 115.523C88.8807 115.023 88.9792 114.617 89.1761 114.307C89.3731 113.992 89.6364 113.746 89.9659 113.568C90.2955 113.39 90.6591 113.258 91.0568 113.17C91.4583 113.08 91.8617 113.008 92.267 112.955C92.7973 112.886 93.2273 112.835 93.5568 112.801C93.8902 112.763 94.1326 112.701 94.2841 112.614C94.4394 112.527 94.517 112.375 94.517 112.159V112.114C94.517 111.553 94.3636 111.117 94.0568 110.807C93.7538 110.496 93.2936 110.341 92.6761 110.341C92.036 110.341 91.5341 110.481 91.1705 110.761C90.8068 111.042 90.5511 111.341 90.4034 111.659L89.1307 111.205C89.358 110.674 89.661 110.261 90.0398 109.966C90.4223 109.667 90.839 109.458 91.2898 109.341C91.7443 109.22 92.1913 109.159 92.6307 109.159C92.911 109.159 93.233 109.193 93.5966 109.261C93.964 109.326 94.3182 109.46 94.6591 109.665C95.0038 109.869 95.2898 110.178 95.517 110.591C95.7443 111.004 95.858 111.557 95.858 112.25V118H94.517V116.818H94.4489C94.358 117.008 94.2064 117.21 93.9943 117.426C93.7822 117.642 93.5 117.826 93.1477 117.977C92.7955 118.129 92.3655 118.205 91.858 118.205ZM92.0625 117C92.5928 117 93.0398 116.896 93.4034 116.688C93.7708 116.479 94.0473 116.21 94.233 115.881C94.4223 115.551 94.517 115.205 94.517 114.841V113.614C94.4602 113.682 94.3352 113.744 94.142 113.801C93.9527 113.854 93.733 113.902 93.483 113.943C93.2367 113.981 92.9962 114.015 92.7614 114.045C92.5303 114.072 92.3428 114.095 92.1989 114.114C91.8504 114.159 91.5246 114.233 91.2216 114.335C90.9223 114.434 90.6799 114.583 90.4943 114.784C90.3125 114.981 90.2216 115.25 90.2216 115.591C90.2216 116.057 90.3939 116.409 90.7386 116.648C91.0871 116.883 91.5284 117 92.0625 117ZM98.8565 121.273C98.6293 121.273 98.4266 121.254 98.2486 121.216C98.0705 121.182 97.9474 121.148 97.8793 121.114L98.2202 119.932C98.5459 120.015 98.8338 120.045 99.0838 120.023C99.3338 120 99.5554 119.888 99.7486 119.688C99.9455 119.491 100.125 119.17 100.288 118.727L100.538 118.045L97.3111 109.273H98.7656L101.175 116.227H101.266L103.675 109.273H105.129L101.425 119.273C101.258 119.723 101.052 120.097 100.805 120.392C100.559 120.691 100.273 120.913 99.9474 121.057C99.6255 121.201 99.2618 121.273 98.8565 121.273Z" fill="#172B4D"/>
<rect x="175" y="104" width="91" height="16" rx="2" fill="#228BE6"/>
<g clip-path="url(#clip4_169_2118)">
<path d="M20 153C24.9706 153 29 148.971 29 144C29 139.029 24.9706 135 20 135C15.0294 135 11 139.029 11 144C11 148.971 15.0294 153 20 153Z" stroke="#172B4D" stroke-width="1.5" stroke-linecap="round" stroke-linejoin="round"/>
<path d="M20 145C21.6569 145 23 143.657 23 142C23 140.343 21.6569 139 20 139C18.3431 139 17 140.343 17 142C17 143.657 18.3431 145 20 145Z" stroke="#172B4D" stroke-width="1.5" stroke-linecap="round" stroke-linejoin="round"/>
<path d="M14.168 150.849C14.4155 150.025 14.9219 149.303 15.6122 148.79C16.3025 148.277 17.1398 148 18 148H22C22.8612 148 23.6996 148.277 24.3904 148.792C25.0811 149.306 25.5874 150.03 25.834 150.855" stroke="#172B4D" stroke-width="1.5" stroke-linecap="round" stroke-linejoin="round"/>
</g>
<path d="M42.4091 150V138.364H43.8182V143.545H50.0227V138.364H51.4318V150H50.0227V144.795H43.8182V150H42.4091ZM56.6392 150.205C56.0862 150.205 55.5843 150.1 55.1335 149.892C54.6828 149.68 54.3248 149.375 54.0597 148.977C53.7945 148.576 53.6619 148.091 53.6619 147.523C53.6619 147.023 53.7604 146.617 53.9574 146.307C54.1544 145.992 54.4176 145.746 54.7472 145.568C55.0767 145.39 55.4403 145.258 55.8381 145.17C56.2396 145.08 56.643 145.008 57.0483 144.955C57.5786 144.886 58.0085 144.835 58.3381 144.801C58.6714 144.763 58.9138 144.701 59.0653 144.614C59.2206 144.527 59.2983 144.375 59.2983 144.159V144.114C59.2983 143.553 59.1449 143.117 58.8381 142.807C58.535 142.496 58.0748 142.341 57.4574 142.341C56.8172 142.341 56.3153 142.481 55.9517 142.761C55.5881 143.042 55.3324 143.341 55.1847 143.659L53.9119 143.205C54.1392 142.674 54.4422 142.261 54.821 141.966C55.2036 141.667 55.6203 141.458 56.071 141.341C56.5256 141.22 56.9725 141.159 57.4119 141.159C57.6922 141.159 58.0142 141.193 58.3778 141.261C58.7453 141.326 59.0994 141.46 59.4403 141.665C59.785 141.869 60.071 142.178 60.2983 142.591C60.5256 143.004 60.6392 143.557 60.6392 144.25V150H59.2983V148.818H59.2301C59.1392 149.008 58.9877 149.21 58.7756 149.426C58.5634 149.642 58.2813 149.826 57.929 149.977C57.5767 150.129 57.1468 150.205 56.6392 150.205ZM56.8438 149C57.3741 149 57.821 148.896 58.1847 148.688C58.5521 148.479 58.8286 148.21 59.0142 147.881C59.2036 147.551 59.2983 147.205 59.2983 146.841V145.614C59.2415 145.682 59.1165 145.744 58.9233 145.801C58.7339 145.854 58.5142 145.902 58.2642 145.943C58.018 145.981 57.7775 146.015 57.5426 146.045C57.3116 146.072 57.1241 146.095 56.9801 146.114C56.6316 146.159 56.3059 146.233 56.0028 146.335C55.7036 146.434 55.4612 146.583 55.2756 146.784C55.0938 146.981 55.0028 147.25 55.0028 147.591C55.0028 148.057 55.1752 148.409 55.5199 148.648C55.8684 148.883 56.3097 149 56.8438 149ZM66.8821 141.273V142.409H62.3594V141.273H66.8821ZM63.6776 139.182H65.0185V147.5C65.0185 147.879 65.0734 148.163 65.1832 148.352C65.2969 148.538 65.4408 148.663 65.6151 148.727C65.7931 148.788 65.9806 148.818 66.1776 148.818C66.3253 148.818 66.4465 148.811 66.5412 148.795C66.6359 148.777 66.7116 148.761 66.7685 148.75L67.0412 149.955C66.9503 149.989 66.8234 150.023 66.6605 150.057C66.4976 150.095 66.2912 150.114 66.0412 150.114C65.6624 150.114 65.2912 150.032 64.9276 149.869C64.5677 149.706 64.2685 149.458 64.0298 149.125C63.795 148.792 63.6776 148.371 63.6776 147.864V139.182ZM72.6946 141.273V142.409H68.1719V141.273H72.6946ZM69.4901 139.182H70.831V147.5C70.831 147.879 70.8859 148.163 70.9957 148.352C71.1094 148.538 71.2533 148.663 71.4276 148.727C71.6056 148.788 71.7931 148.818 71.9901 148.818C72.1378 148.818 72.259 148.811 72.3537 148.795C72.4484 148.777 72.5241 148.761 72.581 148.75L72.8537 149.955C72.7628 149.989 72.6359 150.023 72.473 150.057C72.3101 150.095 72.1037 150.114 71.8537 150.114C71.4749 150.114 71.1037 150.032 70.7401 149.869C70.3802 149.706 70.081 149.458 69.8423 149.125C69.6075 148.792 69.4901 148.371 69.4901 147.864V139.182ZM74.7116 150V141.273H76.0526V150H74.7116ZM75.3935 139.818C75.1321 139.818 74.9067 139.729 74.7173 139.551C74.5317 139.373 74.4389 139.159 74.4389 138.909C74.4389 138.659 74.5317 138.445 74.7173 138.267C74.9067 138.089 75.1321 138 75.3935 138C75.6548 138 75.8783 138.089 76.0639 138.267C76.2533 138.445 76.348 138.659 76.348 138.909C76.348 139.159 76.2533 139.373 76.0639 139.551C75.8783 139.729 75.6548 139.818 75.3935 139.818ZM82.1676 150.182C81.3267 150.182 80.6013 149.996 79.9915 149.625C79.3854 149.25 78.9176 148.727 78.5881 148.057C78.2623 147.383 78.0994 146.598 78.0994 145.705C78.0994 144.811 78.2623 144.023 78.5881 143.341C78.9176 142.655 79.3759 142.121 79.9631 141.739C80.554 141.352 81.2434 141.159 82.0312 141.159C82.4858 141.159 82.9347 141.235 83.3778 141.386C83.821 141.538 84.2244 141.784 84.5881 142.125C84.9517 142.462 85.2415 142.909 85.4574 143.466C85.6733 144.023 85.7812 144.708 85.7812 145.523V146.091H79.054V144.932H84.4176C84.4176 144.439 84.3191 144 84.1222 143.614C83.929 143.227 83.6525 142.922 83.2926 142.699C82.9366 142.475 82.5161 142.364 82.0312 142.364C81.4972 142.364 81.035 142.496 80.6449 142.761C80.2585 143.023 79.9612 143.364 79.7528 143.784C79.5445 144.205 79.4403 144.655 79.4403 145.136V145.909C79.4403 146.568 79.554 147.127 79.7812 147.585C80.0123 148.04 80.3324 148.386 80.7415 148.625C81.1506 148.86 81.6259 148.977 82.1676 148.977C82.5199 148.977 82.8381 148.928 83.1222 148.83C83.41 148.727 83.6581 148.576 83.8665 148.375C84.0748 148.17 84.2358 147.917 84.3494 147.614L85.6449 147.977C85.5085 148.417 85.2794 148.803 84.9574 149.136C84.6354 149.466 84.2377 149.723 83.7642 149.909C83.2907 150.091 82.7585 150.182 82.1676 150.182ZM92.5028 150V138.364H96.571C97.3816 138.364 98.0502 138.504 98.5767 138.784C99.1032 139.061 99.4953 139.434 99.7528 139.903C100.01 140.369 100.139 140.886 100.139 141.455C100.139 141.955 100.05 142.367 99.8722 142.693C99.6979 143.019 99.4669 143.277 99.179 143.466C98.8949 143.655 98.5862 143.795 98.2528 143.886V144C98.6089 144.023 98.9669 144.148 99.3267 144.375C99.6866 144.602 99.9877 144.928 100.23 145.352C100.473 145.777 100.594 146.295 100.594 146.909C100.594 147.492 100.461 148.017 100.196 148.483C99.9309 148.949 99.5123 149.318 98.9403 149.591C98.3684 149.864 97.6241 150 96.7074 150H92.5028ZM93.9119 148.75H96.7074C97.6278 148.75 98.2813 148.572 98.6676 148.216C99.0578 147.856 99.2528 147.42 99.2528 146.909C99.2528 146.515 99.1525 146.152 98.9517 145.818C98.7509 145.481 98.465 145.212 98.0938 145.011C97.7225 144.807 97.2831 144.705 96.7756 144.705H93.9119V148.75ZM93.9119 143.477H96.5256C96.9498 143.477 97.3324 143.394 97.6733 143.227C98.018 143.061 98.2907 142.826 98.4915 142.523C98.696 142.22 98.7983 141.864 98.7983 141.455C98.7983 140.943 98.6203 140.509 98.2642 140.153C97.9081 139.794 97.3438 139.614 96.571 139.614H93.9119V143.477ZM108.227 146.432V141.273H109.568V150H108.227V148.523H108.136C107.932 148.966 107.614 149.343 107.182 149.653C106.75 149.96 106.205 150.114 105.545 150.114C105 150.114 104.515 149.994 104.091 149.756C103.667 149.513 103.333 149.15 103.091 148.665C102.848 148.176 102.727 147.561 102.727 146.818V141.273H104.068V146.727C104.068 147.364 104.246 147.871 104.602 148.25C104.962 148.629 105.42 148.818 105.977 148.818C106.311 148.818 106.65 148.733 106.994 148.562C107.343 148.392 107.634 148.131 107.869 147.778C108.108 147.426 108.227 146.977 108.227 146.432ZM115.82 141.273V142.409H111.297V141.273H115.82ZM112.615 139.182H113.956V147.5C113.956 147.879 114.011 148.163 114.121 148.352C114.234 148.538 114.378 148.663 114.553 148.727C114.731 148.788 114.918 148.818 115.115 148.818C115.263 148.818 115.384 148.811 115.479 148.795C115.573 148.777 115.649 148.761 115.706 148.75L115.979 149.955C115.888 149.989 115.761 150.023 115.598 150.057C115.435 150.095 115.229 150.114 114.979 150.114C114.6 150.114 114.229 150.032 113.865 149.869C113.505 149.706 113.206 149.458 112.967 149.125C112.732 148.792 112.615 148.371 112.615 147.864V139.182ZM119.365 138.364V150H118.024V138.364H119.365ZM125.48 150.182C124.639 150.182 123.914 149.996 123.304 149.625C122.698 149.25 122.23 148.727 121.901 148.057C121.575 147.383 121.412 146.598 121.412 145.705C121.412 144.811 121.575 144.023 121.901 143.341C122.23 142.655 122.688 142.121 123.276 141.739C123.866 141.352 124.556 141.159 125.344 141.159C125.798 141.159 126.247 141.235 126.69 141.386C127.134 141.538 127.537 141.784 127.901 142.125C128.264 142.462 128.554 142.909 128.77 143.466C128.986 144.023 129.094 144.708 129.094 145.523V146.091H122.366V144.932H127.73C127.73 144.439 127.632 144 127.435 143.614C127.241 143.227 126.965 142.922 126.605 142.699C126.249 142.475 125.829 142.364 125.344 142.364C124.81 142.364 124.348 142.496 123.957 142.761C123.571 143.023 123.274 143.364 123.065 143.784C122.857 144.205 122.753 144.655 122.753 145.136V145.909C122.753 146.568 122.866 147.127 123.094 147.585C123.325 148.04 123.645 148.386 124.054 148.625C124.463 148.86 124.938 148.977 125.48 148.977C125.832 148.977 126.151 148.928 126.435 148.83C126.723 148.727 126.971 148.576 127.179 148.375C127.387 148.17 127.548 147.917 127.662 147.614L128.957 147.977C128.821 148.417 128.592 148.803 128.27 149.136C127.948 149.466 127.55 149.723 127.077 149.909C126.603 150.091 126.071 150.182 125.48 150.182ZM131.134 150V141.273H132.429V142.591H132.52C132.679 142.159 132.967 141.809 133.384 141.54C133.8 141.271 134.27 141.136 134.793 141.136C134.891 141.136 135.014 141.138 135.162 141.142C135.31 141.146 135.421 141.152 135.497 141.159V142.523C135.452 142.511 135.348 142.494 135.185 142.472C135.026 142.445 134.857 142.432 134.679 142.432C134.255 142.432 133.876 142.521 133.543 142.699C133.213 142.873 132.952 143.116 132.759 143.426C132.569 143.733 132.474 144.083 132.474 144.477V150H131.134Z" fill="#172B4D"/>
<rect x="175" y="136" width="82" height="16" rx="2" fill="#228BE6"/>
<g clip-path="url(#clip5_169_2118)">
<path d="M20 185C24.9706 185 29 180.971 29 176C29 171.029 24.9706 167 20 167C15.0294 167 11 171.029 11 176C11 180.971 15.0294 185 20 185Z" stroke="#172B4D" stroke-width="1.5" stroke-linecap="round" stroke-linejoin="round"/>
<path d="M20 177C21.6569 177 23 175.657 23 174C23 172.343 21.6569 171 20 171C18.3431 171 17 172.343 17 174C17 175.657 18.3431 177 20 177Z" stroke="#172B4D" stroke-width="1.5" stroke-linecap="round" stroke-linejoin="round"/>
<path d="M14.168 182.849C14.4155 182.025 14.9219 181.303 15.6122 180.79C16.3025 180.277 17.1398 180 18 180H22C22.8612 180 23.6996 180.277 24.3904 180.792C25.0811 181.306 25.5874 182.03 25.834 182.855" stroke="#172B4D" stroke-width="1.5" stroke-linecap="round" stroke-linejoin="round"/>
</g>
<path d="M42.8864 182H41.4091L45.6818 170.364H47.1364L51.4091 182H49.9318L46.4545 172.205H46.3636L42.8864 182ZM43.4318 177.455H49.3864V178.705H43.4318V177.455ZM54.3807 170.364V182H53.0398V170.364H54.3807ZM56.8366 182V173.273H58.1776V182H56.8366ZM57.5185 171.818C57.2571 171.818 57.0317 171.729 56.8423 171.551C56.6567 171.373 56.5639 171.159 56.5639 170.909C56.5639 170.659 56.6567 170.445 56.8423 170.267C57.0317 170.089 57.2571 170 57.5185 170C57.7798 170 58.0033 170.089 58.1889 170.267C58.3783 170.445 58.473 170.659 58.473 170.909C58.473 171.159 58.3783 171.373 58.1889 171.551C58.0033 171.729 57.7798 171.818 57.5185 171.818ZM60.6335 182V173.273H61.929V174.636H62.0426C62.2244 174.17 62.518 173.809 62.9233 173.551C63.3286 173.29 63.8153 173.159 64.3835 173.159C64.9593 173.159 65.4384 173.29 65.821 173.551C66.2074 173.809 66.5085 174.17 66.7244 174.636H66.8153C67.0388 174.186 67.3741 173.828 67.821 173.562C68.268 173.294 68.804 173.159 69.429 173.159C70.2093 173.159 70.8475 173.403 71.3438 173.892C71.84 174.377 72.0881 175.133 72.0881 176.159V182H70.7472V176.159C70.7472 175.515 70.571 175.055 70.2188 174.778C69.8665 174.502 69.4517 174.364 68.9744 174.364C68.3608 174.364 67.8854 174.549 67.5483 174.92C67.2112 175.288 67.0426 175.754 67.0426 176.318V182H65.679V176.023C65.679 175.527 65.518 175.127 65.196 174.824C64.8741 174.517 64.4593 174.364 63.9517 174.364C63.6032 174.364 63.2775 174.456 62.9744 174.642C62.6752 174.828 62.4328 175.085 62.2472 175.415C62.0653 175.741 61.9744 176.117 61.9744 176.545V182H60.6335ZM77.108 182.205C76.5549 182.205 76.053 182.1 75.6023 181.892C75.1515 181.68 74.7936 181.375 74.5284 180.977C74.2633 180.576 74.1307 180.091 74.1307 179.523C74.1307 179.023 74.2292 178.617 74.4261 178.307C74.6231 177.992 74.8864 177.746 75.2159 177.568C75.5455 177.39 75.9091 177.258 76.3068 177.17C76.7083 177.08 77.1117 177.008 77.517 176.955C78.0473 176.886 78.4773 176.835 78.8068 176.801C79.1402 176.763 79.3826 176.701 79.5341 176.614C79.6894 176.527 79.767 176.375 79.767 176.159V176.114C79.767 175.553 79.6136 175.117 79.3068 174.807C79.0038 174.496 78.5436 174.341 77.9261 174.341C77.286 174.341 76.7841 174.481 76.4205 174.761C76.0568 175.042 75.8011 175.341 75.6534 175.659L74.3807 175.205C74.608 174.674 74.911 174.261 75.2898 173.966C75.6723 173.667 76.089 173.458 76.5398 173.341C76.9943 173.22 77.4413 173.159 77.8807 173.159C78.161 173.159 78.483 173.193 78.8466 173.261C79.214 173.326 79.5682 173.46 79.9091 173.665C80.2538 173.869 80.5398 174.178 80.767 174.591C80.9943 175.004 81.108 175.557 81.108 176.25V182H79.767V180.818H79.6989C79.608 181.008 79.4564 181.21 79.2443 181.426C79.0322 181.642 78.75 181.826 78.3977 181.977C78.0455 182.129 77.6155 182.205 77.108 182.205ZM77.3125 181C77.8428 181 78.2898 180.896 78.6534 180.688C79.0208 180.479 79.2973 180.21 79.483 179.881C79.6723 179.551 79.767 179.205 79.767 178.841V177.614C79.7102 177.682 79.5852 177.744 79.392 177.801C79.2027 177.854 78.983 177.902 78.733 177.943C78.4867 177.981 78.2462 178.015 78.0114 178.045C77.7803 178.072 77.5928 178.095 77.4489 178.114C77.1004 178.159 76.7746 178.233 76.4716 178.335C76.1723 178.434 75.9299 178.583 75.7443 178.784C75.5625 178.981 75.4716 179.25 75.4716 179.591C75.4716 180.057 75.6439 180.409 75.9886 180.648C76.3371 180.883 76.7784 181 77.3125 181ZM84.1065 185.273C83.8793 185.273 83.6766 185.254 83.4986 185.216C83.3205 185.182 83.1974 185.148 83.1293 185.114L83.4702 183.932C83.7959 184.015 84.0838 184.045 84.3338 184.023C84.5838 184 84.8054 183.888 84.9986 183.688C85.1955 183.491 85.3755 183.17 85.5384 182.727L85.7884 182.045L82.5611 173.273H84.0156L86.4247 180.227H86.5156L88.9247 173.273H90.3793L86.6747 183.273C86.508 183.723 86.3016 184.097 86.0554 184.392C85.8092 184.691 85.5232 184.913 85.1974 185.057C84.8755 185.201 84.5118 185.273 84.1065 185.273ZM97.6491 178.432V173.273H98.9901V182H97.6491V180.523H97.5582C97.3537 180.966 97.0355 181.343 96.6037 181.653C96.1719 181.96 95.6264 182.114 94.9673 182.114C94.4219 182.114 93.937 181.994 93.5128 181.756C93.0885 181.513 92.7552 181.15 92.5128 180.665C92.2704 180.176 92.1491 179.561 92.1491 178.818V173.273H93.4901V178.727C93.4901 179.364 93.6681 179.871 94.0241 180.25C94.384 180.629 94.8423 180.818 95.3991 180.818C95.7325 180.818 96.0715 180.733 96.4162 180.562C96.7647 180.392 97.0563 180.131 97.2912 179.778C97.5298 179.426 97.6491 178.977 97.6491 178.432ZM114.082 174C113.957 173.617 113.793 173.275 113.588 172.972C113.387 172.665 113.147 172.403 112.866 172.188C112.59 171.972 112.276 171.807 111.923 171.693C111.571 171.58 111.185 171.523 110.764 171.523C110.075 171.523 109.448 171.701 108.884 172.057C108.319 172.413 107.87 172.938 107.537 173.631C107.204 174.324 107.037 175.174 107.037 176.182C107.037 177.189 107.205 178.04 107.543 178.733C107.88 179.426 108.336 179.951 108.912 180.307C109.488 180.663 110.135 180.841 110.855 180.841C111.522 180.841 112.109 180.699 112.616 180.415C113.128 180.127 113.526 179.722 113.81 179.199C114.098 178.672 114.241 178.053 114.241 177.341L114.673 177.432H111.173V176.182H115.605V177.432C115.605 178.39 115.401 179.223 114.991 179.932C114.586 180.64 114.026 181.189 113.31 181.58C112.598 181.966 111.779 182.159 110.855 182.159C109.825 182.159 108.92 181.917 108.139 181.432C107.363 180.947 106.757 180.258 106.321 179.364C105.889 178.47 105.673 177.409 105.673 176.182C105.673 175.261 105.796 174.434 106.043 173.699C106.293 172.96 106.645 172.331 107.099 171.812C107.554 171.294 108.092 170.896 108.713 170.619C109.334 170.343 110.018 170.205 110.764 170.205C111.378 170.205 111.95 170.297 112.48 170.483C113.014 170.665 113.49 170.924 113.906 171.261C114.327 171.595 114.677 171.994 114.957 172.46C115.238 172.922 115.431 173.436 115.537 174H114.082ZM117.837 182V173.273H119.132V174.591H119.223C119.382 174.159 119.67 173.809 120.087 173.54C120.503 173.271 120.973 173.136 121.496 173.136C121.594 173.136 121.717 173.138 121.865 173.142C122.013 173.146 122.125 173.152 122.2 173.159V174.523C122.155 174.511 122.051 174.494 121.888 174.472C121.729 174.445 121.56 174.432 121.382 174.432C120.958 174.432 120.579 174.521 120.246 174.699C119.916 174.873 119.655 175.116 119.462 175.426C119.272 175.733 119.178 176.083 119.178 176.477V182H117.837ZM126.358 182.205C125.805 182.205 125.303 182.1 124.852 181.892C124.402 181.68 124.044 181.375 123.778 180.977C123.513 180.576 123.381 180.091 123.381 179.523C123.381 179.023 123.479 178.617 123.676 178.307C123.873 177.992 124.136 177.746 124.466 177.568C124.795 177.39 125.159 177.258 125.557 177.17C125.958 177.08 126.362 177.008 126.767 176.955C127.297 176.886 127.727 176.835 128.057 176.801C128.39 176.763 128.633 176.701 128.784 176.614C128.939 176.527 129.017 176.375 129.017 176.159V176.114C129.017 175.553 128.864 175.117 128.557 174.807C128.254 174.496 127.794 174.341 127.176 174.341C126.536 174.341 126.034 174.481 125.67 174.761C125.307 175.042 125.051 175.341 124.903 175.659L123.631 175.205C123.858 174.674 124.161 174.261 124.54 173.966C124.922 173.667 125.339 173.458 125.79 173.341C126.244 173.22 126.691 173.159 127.131 173.159C127.411 173.159 127.733 173.193 128.097 173.261C128.464 173.326 128.818 173.46 129.159 173.665C129.504 173.869 129.79 174.178 130.017 174.591C130.244 175.004 130.358 175.557 130.358 176.25V182H129.017V180.818H128.949C128.858 181.008 128.706 181.21 128.494 181.426C128.282 181.642 128 181.826 127.648 181.977C127.295 182.129 126.866 182.205 126.358 182.205ZM126.562 181C127.093 181 127.54 180.896 127.903 180.688C128.271 180.479 128.547 180.21 128.733 179.881C128.922 179.551 129.017 179.205 129.017 178.841V177.614C128.96 177.682 128.835 177.744 128.642 177.801C128.453 177.854 128.233 177.902 127.983 177.943C127.737 177.981 127.496 178.015 127.261 178.045C127.03 178.072 126.843 178.095 126.699 178.114C126.35 178.159 126.025 178.233 125.722 178.335C125.422 178.434 125.18 178.583 124.994 178.784C124.813 178.981 124.722 179.25 124.722 179.591C124.722 180.057 124.894 180.409 125.239 180.648C125.587 180.883 126.028 181 126.562 181ZM133.357 185.273C133.129 185.273 132.927 185.254 132.749 185.216C132.571 185.182 132.447 185.148 132.379 185.114L132.72 183.932C133.046 184.015 133.334 184.045 133.584 184.023C133.834 184 134.055 183.888 134.249 183.688C134.446 183.491 134.625 183.17 134.788 182.727L135.038 182.045L131.811 173.273H133.266L135.675 180.227H135.766L138.175 173.273H139.629L135.925 183.273C135.758 183.723 135.552 184.097 135.305 184.392C135.059 184.691 134.773 184.913 134.447 185.057C134.125 185.201 133.762 185.273 133.357 185.273Z" fill="#172B4D"/>
<rect x="175" y="168" width="73" height="16" rx="2" fill="#228BE6"/>
<defs>
<clipPath id="clip0_169_2118">
<rect width="24" height="24" fill="white" transform="translate(8 4)"/>
</clipPath>
<clipPath id="clip1_169_2118">
<rect width="24" height="24" fill="white" transform="translate(8 36)"/>
</clipPath>
<clipPath id="clip2_169_2118">
<rect width="24" height="24" fill="white" transform="translate(8 68)"/>
</clipPath>
<clipPath id="clip3_169_2118">
<rect width="24" height="24" fill="white" transform="translate(8 100)"/>
</clipPath>
<clipPath id="clip4_169_2118">
<rect width="24" height="24" fill="white" transform="translate(8 132)"/>
</clipPath>
<clipPath id="clip5_169_2118">
<rect width="24" height="24" fill="white" transform="translate(8 164)"/>
</clipPath>
</defs>
</svg>
