<svg width="340" height="199" viewBox="0 0 340 199" fill="none" xmlns="http://www.w3.org/2000/svg">
<path d="M1 199H339V66.2134L335.244 51.9911C331.489 37.7688 323.978 9.32424 316.467 2.5771C308.956 -4.17004 301.444 10.7803 293.933 46.4995C286.422 82.2188 278.911 138.707 271.4 157.692C263.889 176.678 256.378 158.16 248.867 140.488C241.356 122.816 233.844 105.99 226.333 76.5277C218.822 47.0657 211.311 4.96847 203.8 25.5024C196.289 46.0364 188.778 129.202 181.267 162.238C173.756 195.274 166.244 178.182 158.733 179.313C151.222 180.444 143.711 199.797 136.2 183.504C128.689 167.21 121.178 115.269 113.667 102.895C106.156 90.5215 98.6444 117.715 91.1333 134.724C83.6222 151.733 76.1111 158.557 68.6 131.162C61.0889 103.767 53.5778 42.1526 46.0667 29.84C38.5556 17.5274 31.0444 54.517 23.5333 71.9574C16.0222 89.3979 8.51111 87.2891 4.75556 86.2347L1 85.1803V199Z" fill="url(#paint0_linear_169_2112)"/>
<path d="M1 85.1803L4.75556 86.2347C8.51111 87.2891 16.0222 89.3979 23.5333 71.9574C31.0444 54.517 38.5556 17.5274 46.0667 29.84C53.5778 42.1526 61.0889 103.767 68.6 131.162C76.1111 158.558 83.6222 151.733 91.1333 134.724C98.6444 117.715 106.156 90.5215 113.667 102.895C121.178 115.269 128.689 167.21 136.2 183.504C143.711 199.797 151.222 180.444 158.733 179.313C166.244 178.182 173.756 195.274 181.267 162.238C188.778 129.202 196.289 46.0364 203.8 25.5024C211.311 4.96847 218.822 47.0657 226.333 76.5277C233.844 105.99 241.356 122.816 248.867 140.488C256.378 158.16 263.889 176.678 271.4 157.692C278.911 138.707 286.422 82.2188 293.933 46.4995C301.444 10.7803 308.956 -4.17004 316.467 2.5771C323.978 9.32424 331.489 37.7688 335.244 51.9911L339 66.2134" stroke="#228BE6" stroke-width="2" stroke-linecap="round"/>
<defs>
<linearGradient id="paint0_linear_169_2112" x1="170" y1="1" x2="170" y2="199" gradientUnits="userSpaceOnUse">
<stop stop-color="#228BE6" stop-opacity="0.46"/>
<stop offset="1" stop-color="#228BE6" stop-opacity="0"/>
</linearGradient>
</defs>
</svg>
