<svg width="983" height="354" viewBox="0 0 983 354" fill="none" xmlns="http://www.w3.org/2000/svg">
<path d="M982 354V1L973.293 4.92533L965.576 8.22953C957.86 11.5337 942.427 18.1421 926.993 46.5646C911.56 74.9872 896.127 125.224 880.694 152.679C865.26 180.134 849.827 184.807 834.394 163.46C818.961 142.113 803.527 94.745 788.094 81.5986C772.661 68.4522 757.228 89.5272 741.795 81.1909C726.361 72.8546 710.928 35.1069 695.495 15.3741C680.062 -4.35881 664.628 -6.07692 649.195 24.8256C633.762 55.7281 618.329 119.251 602.896 170.357C587.462 221.463 572.029 260.151 556.596 239.801C541.163 219.45 525.729 140.062 510.296 114.928C494.863 89.7951 479.43 118.917 463.997 153.884C448.563 188.851 433.13 229.663 417.697 244.597C402.264 259.53 386.831 248.585 371.397 263.525C355.964 278.464 340.531 319.288 325.098 324.766C309.664 330.244 294.231 300.375 278.798 290.539C263.365 280.702 247.932 290.898 232.498 263.19C217.065 235.481 201.632 169.869 186.199 159.798C170.765 149.727 155.332 195.198 139.899 198.295C124.466 201.392 109.033 162.116 93.5993 182.45C78.1661 202.783 62.7329 282.725 47.2997 316.124C31.8664 349.523 16.4332 336.378 8.71661 329.805L1 323.232V354H982Z" fill="url(#paint0_linear_57_1320)"/>
<path d="M982 1L973.293 4.92533L965.576 8.22953C957.86 11.5337 942.427 18.1421 926.993 46.5646C911.56 74.9872 896.127 125.224 880.694 152.679C865.26 180.134 849.827 184.807 834.394 163.46C818.961 142.113 803.528 94.745 788.094 81.5986C772.661 68.4522 757.228 89.5272 741.795 81.1909C726.361 72.8546 710.928 35.1069 695.495 15.3741C680.062 -4.35881 664.628 -6.07692 649.195 24.8256C633.762 55.728 618.329 119.251 602.896 170.357C587.462 221.463 572.029 260.151 556.596 239.801C541.163 219.45 525.73 140.062 510.296 114.928C494.863 89.7951 479.43 118.917 463.997 153.884C448.563 188.851 433.13 229.663 417.697 244.597C402.264 259.53 386.831 248.585 371.397 263.525C355.964 278.464 340.531 319.288 325.098 324.766C309.664 330.244 294.231 300.375 278.798 290.539C263.365 280.702 247.932 290.898 232.498 263.19C217.065 235.481 201.632 169.869 186.199 159.798C170.765 149.727 155.332 195.198 139.899 198.295C124.466 201.392 109.033 162.116 93.5993 182.45C78.1661 202.783 62.7329 282.726 47.2997 316.124C31.8664 349.523 16.4332 336.378 8.71661 329.805L1 323.232" stroke="#228BE6" stroke-width="2" stroke-linecap="round"/>
<defs>
<linearGradient id="paint0_linear_57_1320" x1="491.5" y1="1" x2="491.5" y2="354" gradientUnits="userSpaceOnUse">
<stop stop-color="#228BE6" stop-opacity="0.46"/>
<stop offset="1" stop-color="#228BE6" stop-opacity="0"/>
</linearGradient>
</defs>
</svg>
